<svg width="30" height="28" viewBox="0 0 30 28" fill="none" xmlns="http://www.w3.org/2000/svg">
<path d="M19.2894 8.48899L24.0551 3.72327M26.7784 1L24.0551 3.72327L26.7784 1ZM13.693 14.0853C14.3961 14.779 14.955 15.605 15.3376 16.5155C15.7201 17.4261 15.9188 18.4034 15.9221 19.3911C15.9254 20.3788 15.7333 21.3574 15.3568 22.2705C14.9804 23.1837 14.4271 24.0133 13.7286 24.7117C13.0302 25.4101 12.2006 25.9635 11.2875 26.3399C10.3743 26.7164 9.39573 26.9085 8.40804 26.9051C7.42036 26.9018 6.44308 26.7032 5.53248 26.3206C4.62189 25.9381 3.79596 25.3792 3.10225 24.6761C1.73807 23.2637 0.98322 21.3719 1.00028 19.4083C1.01735 17.4448 1.80496 15.5664 3.19348 14.1779C4.582 12.7894 6.46033 12.0018 8.42392 11.9847C10.3875 11.9676 12.2792 12.7225 13.6917 14.0867L13.693 14.0853ZM13.693 14.0853L19.2894 8.48899L13.693 14.0853ZM19.2894 8.48899L23.3743 12.5739L28.14 7.80818L24.0551 3.72327L19.2894 8.48899Z" stroke="white" stroke-width="2" stroke-linecap="round" stroke-linejoin="round"/>
</svg>
