<svg width="64" height="64" viewBox="0 0 64 64" fill="none" xmlns="http://www.w3.org/2000/svg">
<path d="M16.5 33.3333V26.7059L31.5 55.4559V62.9325L28.3201 60.2826L24.3201 56.9492L16.5 50.4325V42V33.3333ZM31.5 53.2941L16.5 24.5441V17.0675L23.6799 23.0508L31.5 29.5675V38V46.6667V53.2941ZM15.5 42V50.4325L7.67991 56.9492L2.96028 60.8823C1.98329 61.6964 0.5 61.0017 0.5 59.7299V55.4559L15.5 26.7059V33.3333V42ZM15.5 24.5441L0.5 53.2941V46.6667V38V31.2068C0.5 30.1681 0.961381 29.183 1.75935 28.5181L8.32009 23.0508L15.5 17.0675V24.5441ZM32.5 38V29.5675L40.3201 23.0508L47.5 17.0675V24.6667V33.1707L32.5 53.7957V46.6667V38ZM48.5 24.6667V17.0675L55.6799 23.0508L62.2406 28.5181C63.0386 29.183 63.5 30.1681 63.5 31.2068V38V45.5991L48.5 33.0991V24.6667ZM48.5 34.4009L63.5 46.9009V55.3333V59.7299C63.5 61.0017 62.0167 61.6964 61.0397 60.8823L56.3201 56.9492L48.5 50.4325V42V34.4009ZM47.5 42V50.4325L39.6799 56.9492L35.6799 60.2826L32.5 62.9325V55.4959L47.5 34.8709V42Z" fill="white" stroke="#D9D9D9"/>
<path d="M46 14C46 20.9798 38.9376 31.656 33.6401 39.3069C32.847 40.4525 31.153 40.4525 30.3599 39.3069C25.0624 31.656 18 20.9798 18 14C18 6.26801 24.268 0 32 0C39.732 0 46 6.26801 46 14Z" fill="#D9D9D9"/>
<circle cx="32" cy="13.3332" r="6.66667" fill="white"/>
</svg>
