<svg width="138" height="169" viewBox="0 0 138 169" fill="none" xmlns="http://www.w3.org/2000/svg">
<g filter="url(#filter0_d_2711_2355)">
<path d="M50.4892 4.07245C46.7666 -0.47635 40.199 -1.30134 35.472 2.03652C35.472 2.03652 35.8338 3.32057 36.241 4.25179C36.263 4.30578 36.2929 4.32845 36.317 4.36562C37.3571 6.87177 38.9938 9.6316 41.1981 12.3281C43.7906 15.493 46.6432 17.9694 49.2178 19.4648C53.6981 15.5289 54.294 8.72588 50.4892 4.07245ZM50.321 11.9804C50.5316 11.6927 50.959 11.6445 51.266 11.8718C51.5795 12.1 51.408 12.8381 51.391 12.8572C51.3745 12.8979 51.3634 12.9441 51.3334 12.9827C51.1327 13.2563 50.7312 13.3037 50.438 13.0852C50.1754 12.8953 50.2507 12.0784 50.321 11.9804ZM51.3582 16.5543C51.1249 16.8643 50.7772 16.9933 50.5828 16.8448C50.4784 16.766 50.5019 16.0712 50.648 15.8793C50.8829 15.5689 51.2304 15.4414 51.4241 15.5887C51.5319 15.6668 51.5009 16.3617 51.3582 16.5543ZM52.5309 11.4261C52.3273 11.5918 51.9825 11.5084 51.7599 11.2327C51.6379 11.0854 51.5739 10.3994 51.7031 10.2962C51.9054 10.1305 52.2509 10.2153 52.4737 10.4895C52.5934 10.6342 52.658 11.3211 52.5309 11.4261ZM51.2129 7.07341C51.3731 6.94258 51.6973 7.06739 51.9336 7.35508C52.0614 7.50963 52.2061 8.17547 52.1046 8.25885C51.9414 8.38898 51.6172 8.267 51.3839 7.97648C51.2547 7.81909 51.1134 7.15679 51.2129 7.07341ZM51.1164 9.30922C50.8885 9.49652 50.5005 9.4011 50.253 9.09819C50.1188 8.93549 50.0487 8.16396 50.1933 8.04464C50.4245 7.85733 50.8112 7.95134 51.0596 8.25602C51.195 8.42102 51.2603 9.19255 51.1164 9.30922ZM49.5285 4.29091C49.676 4.17106 50.0129 4.33677 50.2806 4.66623C50.4252 4.84292 50.6439 5.55425 50.5515 5.62932C50.4068 5.74616 50.074 5.58045 49.8024 5.25258C49.6576 5.072 49.4363 4.36297 49.5285 4.29091ZM49.2582 5.67481C49.4051 5.85114 49.4889 6.67437 49.3384 6.79936C49.0992 6.99551 48.6899 6.88557 48.421 6.56053C48.2771 6.38137 48.1926 5.55797 48.3394 5.43599C48.5812 5.237 48.9907 5.34553 49.2582 5.67481ZM47.4045 6.99675C47.5512 7.17308 47.5781 8.0418 47.4045 8.18609C47.1341 8.4088 46.6878 8.32807 46.4191 7.99878C46.2751 7.82246 46.2452 6.95657 46.4191 6.816C46.6956 6.58673 47.1368 6.66906 47.4045 6.99675ZM44.1671 0.729097C44.3835 0.552768 44.7227 0.609597 44.9247 0.85922C45.1283 1.10672 45.12 1.45159 44.9013 1.62827C44.6885 1.80177 44.3493 1.74211 44.1471 1.49461C43.945 1.24729 43.9529 0.902948 44.1671 0.729097ZM38.5906 1.79929C38.4007 1.95331 38.1886 2.01846 38.0176 2.00465C37.8565 2.03262 37.7083 2.00465 37.6281 1.90427C37.4734 1.71449 37.5904 1.36148 37.8864 1.11787C38.0764 0.963849 38.2879 0.898699 38.4588 0.912154C38.622 0.885953 38.768 0.914987 38.8527 1.01537C39.0058 1.20409 38.8893 1.55409 38.5906 1.79929ZM40.5558 3.9294C40.2543 4.17407 39.8117 4.1337 39.5675 3.83504C39.4171 3.64703 39.5435 2.80628 39.7074 2.67332C40.0089 2.42582 40.4501 2.4676 40.6985 2.76485C40.8461 2.95216 40.7227 3.79362 40.5558 3.9294ZM41.0022 1.05254C40.6687 1.09256 40.3587 0.944021 40.3153 0.721485C40.2693 0.502312 40.5028 0.287566 40.8367 0.246493C41.1731 0.206483 41.4803 0.352185 41.5265 0.574367C41.5746 0.796726 41.3391 1.01059 41.0022 1.05254ZM42.5226 7.11608C42.2212 7.36393 41.7621 7.29559 41.4937 6.96772C41.3498 6.79104 41.3526 5.89611 41.5371 5.74315C41.8386 5.49548 42.2998 5.56399 42.5658 5.89452C42.7112 6.07102 42.7055 6.96489 42.5226 7.11608ZM42.8539 2.32332C42.5878 2.61101 42.1834 2.66465 41.9521 2.45061C41.8074 2.31429 41.8981 1.5332 42.0422 1.37794C42.3068 1.09556 42.7098 1.0359 42.9419 1.25295C43.0872 1.38856 42.9959 2.16717 42.8539 2.32332ZM44.9098 10.341C44.5906 10.5989 44.1031 10.5258 43.8202 10.1781C43.6656 9.99081 43.6677 9.0387 43.8649 8.87724C44.1813 8.61859 44.6708 8.68994 44.9532 9.04012C45.1092 9.22742 45.1092 10.1781 44.9098 10.341ZM45.0291 5.2763C44.7567 5.50096 44.3068 5.4197 44.0438 5.08829C43.8991 4.91196 43.8678 4.0489 44.0438 3.90426C44.3183 3.6796 44.7588 3.75838 45.0291 4.08945C45.1773 4.26613 45.2002 5.1345 45.0291 5.2763ZM45.9152 2.51718C46.1408 2.32704 46.5276 2.42281 46.7786 2.72891C46.9142 2.89108 46.978 3.66261 46.8383 3.77928C46.6076 3.96729 46.2195 3.8708 45.9726 3.56825C45.8357 3.40272 45.7704 2.63473 45.9152 2.51718ZM47.4114 12.7521C47.1115 12.9964 46.6494 12.9287 46.3849 12.6023C46.2403 12.4228 46.2422 11.5307 46.4309 11.3745C46.7269 11.1302 47.1886 11.1979 47.4561 11.5257C47.6008 11.7045 47.5988 12.5966 47.4114 12.7521ZM47.6243 2.94118C47.5128 2.78716 47.4285 2.13531 47.5385 2.059C47.7095 1.93632 48.0166 2.07529 48.2204 2.36581C48.3304 2.52337 48.4127 3.17221 48.3054 3.24869C48.133 3.36819 47.8293 3.2317 47.6243 2.94118ZM48.3842 9.5098C48.6607 9.2816 49.1049 9.36498 49.3724 9.69144C49.5177 9.86812 49.5434 10.7368 49.3694 10.8797C49.0971 11.1049 48.6529 11.0215 48.3842 10.6952C48.2395 10.5175 48.2132 9.65161 48.3842 9.5098ZM48.6248 15.2187C48.4899 15.0589 48.5297 14.2055 48.7182 14.0517C49.0171 13.8093 49.4568 13.8555 49.7036 14.1567C49.8364 14.3171 49.7987 15.1699 49.6128 15.3248C49.3127 15.5689 48.8716 15.5204 48.6248 15.2187Z" fill="white"/>
<path d="M47.7046 20.5846C45.1854 19.0752 42.4177 16.6546 39.9034 13.5731C36.9416 9.9622 34.9358 6.19183 34.1349 3.14148C32.0021 5.20928 30.868 7.96575 30.775 10.7658C31.6186 13.0411 32.9335 15.3776 34.7334 17.566C36.1708 19.3204 37.7678 20.782 39.4061 21.9526C39.6834 22.0151 39.9631 22.0593 40.2439 22.0999C40.2708 22.1176 40.2979 22.1401 40.3241 22.1585L40.3729 22.1234C42.8605 22.4623 45.4585 21.9703 47.7046 20.5846Z" fill="white" stroke="white" stroke-width="1.2651"/>
<path d="M28.9109 30.8251L28.6775 31.015V31.3159V63.5578L25.5873 63.6071V33.8755V33.4597L25.2056 33.2948C25.0825 33.2416 24.9413 33.1565 24.785 33.0412L24.4151 32.7684L24.0413 33.0359L20.6587 35.4572L20.6423 35.469L20.6267 35.4817C18.992 36.817 16.7434 36.6316 15.5814 35.2143L12.7453 31.7492C11.5863 30.3324 11.8499 28.0929 13.485 26.7549L13.4983 26.744L13.5109 26.7325L16.7397 23.7844L17.0239 23.525L16.9241 23.1534C16.8653 22.9341 16.8556 22.7623 16.8723 22.6461C16.8881 22.5356 16.9213 22.5082 16.9272 22.5034L23.4712 17.1857C23.4747 17.1842 23.4829 17.1812 23.4983 17.1782C23.5343 17.1711 23.5934 17.1669 23.684 17.174L23.9572 17.1952L24.1596 17.0104L28.6339 12.9245C29.5069 15.1438 30.8265 17.4043 32.5642 19.5197C33.9293 21.1849 35.4348 22.6086 36.9895 23.7664L32.6151 26.8988L32.285 27.1352L32.3625 27.5337C32.3972 27.7124 32.393 27.8473 32.3731 27.9362C32.3543 28.02 32.3262 28.0476 32.3141 28.0573L32.3122 28.0589L28.9109 30.8251Z" fill="white" stroke="white" stroke-width="1.2651"/>
</g>
<g filter="url(#filter1_d_2711_2355)">
<path d="M89.111 4.07245C92.8336 -0.47635 99.4011 -1.30134 104.128 2.03652C104.128 2.03652 103.766 3.32057 103.359 4.25179C103.337 4.30578 103.307 4.32845 103.283 4.36562C102.243 6.87177 100.606 9.6316 98.4021 12.3281C95.8096 15.493 92.957 17.9694 90.3823 19.4648C85.902 15.5289 85.3061 8.72588 89.111 4.07245ZM89.2792 11.9804C89.0685 11.6927 88.6412 11.6445 88.3342 11.8718C88.0206 12.1 88.1922 12.8381 88.2092 12.8572C88.2256 12.8979 88.2368 12.9441 88.2667 12.9827C88.4675 13.2563 88.869 13.3037 89.1622 13.0852C89.4247 12.8953 89.3495 12.0784 89.2792 11.9804ZM88.2419 16.5543C88.4753 16.8643 88.823 16.9933 89.0174 16.8448C89.1218 16.766 89.0983 16.0712 88.9522 15.8793C88.7173 15.5689 88.3698 15.4414 88.1761 15.5887C88.0683 15.6668 88.0992 16.3617 88.2419 16.5543ZM87.0692 11.4261C87.2728 11.5918 87.6177 11.5084 87.8402 11.2327C87.9622 11.0854 88.0263 10.3994 87.8971 10.2962C87.6947 10.1305 87.3493 10.2153 87.1264 10.4895C87.0067 10.6342 86.9421 11.3211 87.0692 11.4261ZM88.3873 7.07341C88.2271 6.94258 87.9029 7.06739 87.6666 7.35508C87.5387 7.50963 87.3941 8.17547 87.4955 8.25885C87.6588 8.38898 87.9829 8.267 88.2163 7.97648C88.3455 7.81909 88.4868 7.15679 88.3873 7.07341ZM88.4838 9.30922C88.7116 9.49652 89.0997 9.4011 89.3472 9.09819C89.4814 8.93549 89.5515 8.16396 89.4068 8.04464C89.1756 7.85733 88.789 7.95134 88.5406 8.25602C88.4052 8.42102 88.3398 9.19255 88.4838 9.30922ZM90.0716 4.29091C89.9241 4.17106 89.5872 4.33677 89.3196 4.66623C89.1749 4.84292 88.9563 5.55425 89.0487 5.62932C89.1933 5.74616 89.5262 5.58045 89.7977 5.25258C89.9426 5.072 90.1639 4.36297 90.0716 4.29091ZM90.342 5.67481C90.195 5.85114 90.1113 6.67437 90.2618 6.79936C90.5009 6.99551 90.9102 6.88557 91.1792 6.56053C91.3231 6.38137 91.4075 5.55797 91.2608 5.43599C91.0189 5.237 90.6095 5.34553 90.342 5.67481ZM92.1957 6.99675C92.0489 7.17308 92.022 8.0418 92.1957 8.18609C92.466 8.4088 92.9124 8.32807 93.1811 7.99878C93.325 7.82246 93.355 6.95657 93.1811 6.816C92.9046 6.58673 92.4634 6.66906 92.1957 6.99675ZM95.433 0.729097C95.2167 0.552768 94.8775 0.609597 94.6755 0.85922C94.4719 1.10672 94.4802 1.45159 94.6988 1.62827C94.9116 1.80177 95.2508 1.74211 95.453 1.49461C95.6552 1.24729 95.6472 0.902948 95.433 0.729097ZM101.01 1.79929C101.199 1.95331 101.412 2.01846 101.583 2.00465C101.744 2.03262 101.892 2.00465 101.972 1.90427C102.127 1.71449 102.01 1.36148 101.714 1.11787C101.524 0.963849 101.312 0.898699 101.141 0.912154C100.978 0.885953 100.832 0.914987 100.748 1.01537C100.594 1.20409 100.711 1.55409 101.01 1.79929ZM99.0444 3.9294C99.3459 4.17407 99.7885 4.1337 100.033 3.83504C100.183 3.64703 100.057 2.80628 99.8928 2.67332C99.5913 2.42582 99.1501 2.4676 98.9017 2.76485C98.7541 2.95216 98.8775 3.79362 99.0444 3.9294ZM98.5979 1.05254C98.9315 1.09256 99.2414 0.944021 99.2848 0.721485C99.3308 0.502312 99.0973 0.287566 98.7634 0.246493C98.4271 0.206483 98.1199 0.352185 98.0737 0.574367C98.0255 0.796726 98.261 1.01059 98.5979 1.05254ZM97.0775 7.11608C97.379 7.36393 97.8381 7.29559 98.1065 6.96772C98.2504 6.79104 98.2476 5.89611 98.0631 5.74315C97.7616 5.49548 97.3004 5.56399 97.0343 5.89452C96.889 6.07102 96.8946 6.96489 97.0775 7.11608ZM96.7463 2.32332C97.0124 2.61101 97.4167 2.66465 97.6481 2.45061C97.7927 2.31429 97.7021 1.5332 97.558 1.37794C97.2933 1.09556 96.8904 1.0359 96.6583 1.25295C96.5129 1.38856 96.6043 2.16717 96.7463 2.32332ZM94.6903 10.341C95.0095 10.5989 95.4971 10.5258 95.78 10.1781C95.9346 9.99081 95.9324 9.0387 95.7352 8.87724C95.4189 8.61859 94.9293 8.68994 94.647 9.04012C94.491 9.22742 94.491 10.1781 94.6903 10.341ZM94.571 5.2763C94.8435 5.50096 95.2933 5.4197 95.5564 5.08829C95.701 4.91196 95.7324 4.0489 95.5564 3.90426C95.2818 3.6796 94.8414 3.75838 94.571 4.08945C94.4228 4.26613 94.4 5.1345 94.571 5.2763ZM93.6849 2.51718C93.4594 2.32704 93.0726 2.42281 92.8215 2.72891C92.6859 2.89108 92.6222 3.66261 92.7619 3.77928C92.9926 3.96729 93.3806 3.8708 93.6276 3.56825C93.7644 3.40272 93.8298 2.63473 93.6849 2.51718ZM92.1888 12.7521C92.4887 12.9964 92.9508 12.9287 93.2153 12.6023C93.3599 12.4228 93.358 11.5307 93.1692 11.3745C92.8732 11.1302 92.4115 11.1979 92.144 11.5257C91.9994 11.7045 92.0013 12.5966 92.1888 12.7521ZM91.9758 2.94118C92.0874 2.78716 92.1716 2.13531 92.0617 2.059C91.8907 1.93632 91.5835 2.07529 91.3797 2.36581C91.2698 2.52337 91.1875 3.17221 91.2948 3.24869C91.4672 3.36819 91.7708 3.2317 91.9758 2.94118ZM91.216 9.5098C90.9395 9.2816 90.4953 9.36498 90.2278 9.69144C90.0824 9.86812 90.0567 10.7368 90.2308 10.8797C90.5031 11.1049 90.9472 11.0215 91.216 10.6952C91.3606 10.5175 91.387 9.65161 91.216 9.5098ZM90.9754 15.2187C91.1103 15.0589 91.0705 14.2055 90.8819 14.0517C90.5831 13.8093 90.1433 13.8555 89.8965 14.1567C89.7637 14.3171 89.8015 15.1699 89.9873 15.3248C90.2874 15.5689 90.7286 15.5204 90.9754 15.2187Z" fill="white"/>
<path d="M91.8954 20.5846C94.4146 19.0752 97.1822 16.6546 99.6965 13.5731C102.658 9.9622 104.664 6.19183 105.465 3.14148C107.598 5.20928 108.732 7.96575 108.825 10.7658C107.981 13.0411 106.666 15.3776 104.867 17.566C103.429 19.3204 101.832 20.782 100.194 21.9526C99.9166 22.0151 99.6369 22.0593 99.3561 22.0999C99.3292 22.1176 99.3021 22.1401 99.2759 22.1585L99.227 22.1234C96.7395 22.4623 94.1414 21.9703 91.8954 20.5846Z" fill="white" stroke="white" stroke-width="1.2651"/>
<path d="M110.689 30.8251L110.922 31.015V31.3159V63.5578L114.013 63.6071V33.8755V33.4597L114.394 33.2948C114.517 33.2416 114.659 33.1565 114.815 33.0412L115.185 32.7684L115.559 33.0359L118.941 35.4572L118.958 35.469L118.973 35.4817C120.608 36.817 122.857 36.6316 124.019 35.2143L126.855 31.7492C128.014 30.3324 127.75 28.0929 126.115 26.7549L126.102 26.744L126.089 26.7325L122.86 23.7844L122.576 23.525L122.676 23.1534C122.735 22.9341 122.744 22.7623 122.728 22.6461C122.712 22.5356 122.679 22.5082 122.673 22.5034L116.129 17.1857C116.125 17.1842 116.117 17.1812 116.102 17.1782C116.066 17.1711 116.007 17.1669 115.916 17.174L115.643 17.1952L115.44 17.0104L110.966 12.9245C110.093 15.1438 108.773 17.4043 107.036 19.5197C105.671 21.1849 104.165 22.6086 102.61 23.7664L106.985 26.8988L107.315 27.1352L107.237 27.5337C107.203 27.7124 107.207 27.8473 107.227 27.9362C107.246 28.02 107.274 28.0476 107.286 28.0573L107.288 28.0589L110.689 30.8251Z" fill="white" stroke="white" stroke-width="1.2651"/>
</g>
<g filter="url(#filter2_d_2711_2355)">
<path d="M5 49.6136C5 45.4155 8.40324 42.0123 12.6014 42.0123H125.399C129.597 42.0123 133 45.4155 133 49.6136V80.8109C133 85.009 129.597 88.4123 125.399 88.4123H92.6013C88.4032 88.4123 85 91.8155 85 96.0136V158.08H69H53V96.0136C53 91.8155 49.5968 88.4123 45.3986 88.4123H12.6014C8.40324 88.4123 5 85.009 5 80.8109V49.6136Z" fill="white"/>
</g>
<defs>
<filter id="filter0_d_2711_2355" x="8.76846" y="1.52588e-05" width="46.8629" height="69.5129" filterUnits="userSpaceOnUse" color-interpolation-filters="sRGB">
<feFlood flood-opacity="0" result="BackgroundImageFix"/>
<feColorMatrix in="SourceAlpha" type="matrix" values="0 0 0 0 0 0 0 0 0 0 0 0 0 0 0 0 0 0 127 0" result="hardAlpha"/>
<feOffset dy="2.63158"/>
<feGaussianBlur stdDeviation="1.31579"/>
<feComposite in2="hardAlpha" operator="out"/>
<feColorMatrix type="matrix" values="0 0 0 0 0 0 0 0 0 0 0 0 0 0 0 0 0 0 0.25 0"/>
<feBlend mode="normal" in2="BackgroundImageFix" result="effect1_dropShadow_2711_2355"/>
<feBlend mode="normal" in="SourceGraphic" in2="effect1_dropShadow_2711_2355" result="shape"/>
</filter>
<filter id="filter1_d_2711_2355" x="83.9688" y="1.52588e-05" width="46.8627" height="69.5129" filterUnits="userSpaceOnUse" color-interpolation-filters="sRGB">
<feFlood flood-opacity="0" result="BackgroundImageFix"/>
<feColorMatrix in="SourceAlpha" type="matrix" values="0 0 0 0 0 0 0 0 0 0 0 0 0 0 0 0 0 0 127 0" result="hardAlpha"/>
<feOffset dy="2.63158"/>
<feGaussianBlur stdDeviation="1.31579"/>
<feComposite in2="hardAlpha" operator="out"/>
<feColorMatrix type="matrix" values="0 0 0 0 0 0 0 0 0 0 0 0 0 0 0 0 0 0 0.25 0"/>
<feBlend mode="normal" in2="BackgroundImageFix" result="effect1_dropShadow_2711_2355"/>
<feBlend mode="normal" in="SourceGraphic" in2="effect1_dropShadow_2711_2355" result="shape"/>
</filter>
<filter id="filter2_d_2711_2355" x="0" y="42.0123" width="138" height="126.068" filterUnits="userSpaceOnUse" color-interpolation-filters="sRGB">
<feFlood flood-opacity="0" result="BackgroundImageFix"/>
<feColorMatrix in="SourceAlpha" type="matrix" values="0 0 0 0 0 0 0 0 0 0 0 0 0 0 0 0 0 0 127 0" result="hardAlpha"/>
<feOffset dy="5"/>
<feGaussianBlur stdDeviation="2.5"/>
<feComposite in2="hardAlpha" operator="out"/>
<feColorMatrix type="matrix" values="0 0 0 0 0 0 0 0 0 0 0 0 0 0 0 0 0 0 0.25 0"/>
<feBlend mode="normal" in2="BackgroundImageFix" result="effect1_dropShadow_2711_2355"/>
<feBlend mode="normal" in="SourceGraphic" in2="effect1_dropShadow_2711_2355" result="shape"/>
</filter>
</defs>
</svg>
