<svg width="308" height="128" viewBox="0 0 308 128" fill="none" xmlns="http://www.w3.org/2000/svg">
<path d="M85.664 28H60.52V8.008H64.748V24.472H70.964V8.008H75.22V24.472H81.436V8.008H85.664V28ZM107.003 28H102.187L94.9355 17.864V28H90.7075V8.008H94.9355V17.696L102.103 8.008H106.611L99.3315 17.612L107.003 28ZM127.117 17.976C127.117 19.5253 126.921 20.9347 126.529 22.204C126.156 23.4547 125.577 24.5373 124.793 25.452C124.028 26.3667 123.038 27.0667 121.825 27.552C120.63 28.0373 119.221 28.28 117.597 28.28C115.973 28.28 114.554 28.0373 113.341 27.552C112.146 27.048 111.157 26.348 110.373 25.452C109.608 24.5373 109.029 23.4453 108.637 22.176C108.264 20.9067 108.077 19.4973 108.077 17.948C108.077 15.876 108.413 14.0747 109.085 12.544C109.776 11.0133 110.821 9.828 112.221 8.988C113.64 8.12933 115.441 7.7 117.625 7.7C119.79 7.7 121.573 8.12933 122.973 8.988C124.373 9.828 125.409 11.0227 126.081 12.572C126.772 14.1027 127.117 15.904 127.117 17.976ZM112.529 17.976C112.529 19.376 112.706 20.58 113.061 21.588C113.416 22.596 113.966 23.3707 114.713 23.912C115.46 24.4533 116.421 24.724 117.597 24.724C118.81 24.724 119.781 24.4533 120.509 23.912C121.256 23.3707 121.797 22.596 122.133 21.588C122.488 20.58 122.665 19.376 122.665 17.976C122.665 15.8667 122.273 14.2147 121.489 13.02C120.705 11.8253 119.417 11.228 117.625 11.228C116.43 11.228 115.46 11.4987 114.713 12.04C113.966 12.5813 113.416 13.356 113.061 14.364C112.706 15.372 112.529 16.576 112.529 17.976ZM146.531 28H142.303V11.536H137.403C137.291 12.3947 137.17 13.328 137.039 14.336C136.927 15.344 136.797 16.3707 136.647 17.416C136.517 18.4427 136.377 19.4227 136.227 20.356C136.078 21.2707 135.929 22.0827 135.779 22.792C135.537 23.9493 135.21 24.9387 134.799 25.76C134.407 26.5813 133.857 27.2067 133.147 27.636C132.457 28.0653 131.551 28.28 130.431 28.28C130.058 28.28 129.703 28.252 129.367 28.196C129.031 28.14 128.714 28.0653 128.415 27.972V24.5C128.658 24.5747 128.891 24.64 129.115 24.696C129.358 24.752 129.619 24.78 129.899 24.78C130.273 24.78 130.581 24.6587 130.823 24.416C131.066 24.1733 131.281 23.7627 131.467 23.184C131.654 22.5867 131.841 21.7653 132.027 20.72C132.121 20.272 132.233 19.6373 132.363 18.816C132.494 17.976 132.643 16.996 132.811 15.876C132.998 14.7373 133.185 13.5053 133.371 12.18C133.558 10.836 133.735 9.44533 133.903 8.008H146.531V28ZM163.811 28L162.355 23.24H155.075L153.619 28H149.055L156.111 7.924H161.291L168.375 28H163.811ZM159.891 15.036C159.797 14.7187 159.676 14.3173 159.527 13.832C159.377 13.3467 159.228 12.852 159.079 12.348C158.929 11.844 158.808 11.4053 158.715 11.032C158.621 11.4053 158.491 11.872 158.323 12.432C158.173 12.9733 158.024 13.496 157.875 14C157.744 14.4853 157.641 14.8307 157.567 15.036L156.139 19.684H161.347L159.891 15.036ZM60.52 63V43.008H76.34V63H72.112V46.536H64.748V63H60.52ZM92.8913 63H81.3833V43.008H92.8913V46.48H85.6113V50.876H92.3873V54.348H85.6113V59.5H92.8913V63ZM103.435 43.008C106.011 43.008 107.887 43.568 109.063 44.688C110.258 45.7893 110.855 47.3107 110.855 49.252C110.855 50.1293 110.725 50.9693 110.463 51.772C110.202 52.556 109.763 53.2653 109.147 53.9C108.55 54.516 107.757 55.0013 106.767 55.356C105.778 55.7107 104.555 55.888 103.099 55.888H101.279V63H97.0512V43.008H103.435ZM103.211 46.48H101.279V52.416H102.679C103.482 52.416 104.173 52.3133 104.751 52.108C105.33 51.9027 105.778 51.576 106.095 51.128C106.413 50.68 106.571 50.1013 106.571 49.392C106.571 48.4027 106.301 47.6747 105.759 47.208C105.218 46.7227 104.369 46.48 103.211 46.48ZM126.141 63H114.633V43.008H126.141V46.48H118.861V50.876H125.637V54.348H118.861V59.5H126.141V63ZM145.953 43.008V59.472H148.613V68.824H144.525V63H132.009V68.824H127.921V59.472H129.461C129.984 58.4267 130.488 57.3253 130.973 56.168C131.459 55.0107 131.907 53.7693 132.317 52.444C132.747 51.1187 133.129 49.6813 133.465 48.132C133.801 46.564 134.081 44.856 134.305 43.008H145.953ZM137.665 46.536C137.535 47.5067 137.348 48.5427 137.105 49.644C136.863 50.7267 136.573 51.8373 136.237 52.976C135.92 54.1147 135.565 55.2347 135.173 56.336C134.781 57.4373 134.361 58.4827 133.913 59.472H141.725V46.536H137.665ZM169.828 52.976C169.828 54.5253 169.632 55.9347 169.24 57.204C168.867 58.4547 168.288 59.5373 167.504 60.452C166.739 61.3667 165.749 62.0667 164.536 62.552C163.341 63.0373 161.932 63.28 160.308 63.28C158.684 63.28 157.265 63.0373 156.052 62.552C154.857 62.048 153.868 61.348 153.084 60.452C152.319 59.5373 151.74 58.4453 151.348 57.176C150.975 55.9067 150.788 54.4973 150.788 52.948C150.788 50.876 151.124 49.0747 151.796 47.544C152.487 46.0133 153.532 44.828 154.932 43.988C156.351 43.1293 158.152 42.7 160.336 42.7C162.501 42.7 164.284 43.1293 165.684 43.988C167.084 44.828 168.12 46.0227 168.792 47.572C169.483 49.1027 169.828 50.904 169.828 52.976ZM155.24 52.976C155.24 54.376 155.417 55.58 155.772 56.588C156.127 57.596 156.677 58.3707 157.424 58.912C158.171 59.4533 159.132 59.724 160.308 59.724C161.521 59.724 162.492 59.4533 163.22 58.912C163.967 58.3707 164.508 57.596 164.844 56.588C165.199 55.58 165.376 54.376 165.376 52.976C165.376 50.8667 164.984 49.2147 164.2 48.02C163.416 46.8253 162.128 46.228 160.336 46.228C159.141 46.228 158.171 46.4987 157.424 47.04C156.677 47.5813 156.127 48.356 155.772 49.364C155.417 50.372 155.24 51.576 155.24 52.976ZM180.185 43.008C181.959 43.008 183.443 43.176 184.637 43.512C185.851 43.8293 186.756 44.3613 187.353 45.108C187.969 45.836 188.277 46.8253 188.277 48.076C188.277 48.8227 188.156 49.504 187.913 50.12C187.671 50.736 187.316 51.24 186.849 51.632C186.401 52.024 185.851 52.276 185.197 52.388V52.528C185.869 52.6587 186.476 52.892 187.017 53.228C187.559 53.564 187.988 54.0493 188.305 54.684C188.623 55.3187 188.781 56.1587 188.781 57.204C188.781 58.4173 188.483 59.4627 187.885 60.34C187.307 61.1987 186.467 61.8613 185.365 62.328C184.264 62.776 182.957 63 181.445 63H173.969V43.008H180.185ZM180.661 50.932C181.893 50.932 182.743 50.736 183.209 50.344C183.695 49.952 183.937 49.3827 183.937 48.636C183.937 47.8707 183.657 47.32 183.097 46.984C182.537 46.648 181.651 46.48 180.437 46.48H178.197V50.932H180.661ZM178.197 54.292V59.5H180.969C182.239 59.5 183.125 59.2573 183.629 58.772C184.133 58.268 184.385 57.6053 184.385 56.784C184.385 56.28 184.273 55.8413 184.049 55.468C183.844 55.0947 183.48 54.8053 182.957 54.6C182.435 54.3947 181.725 54.292 180.829 54.292H178.197ZM210.926 52.976C210.926 54.5253 210.73 55.9347 210.338 57.204C209.964 58.4547 209.386 59.5373 208.602 60.452C207.836 61.3667 206.847 62.0667 205.634 62.552C204.439 63.0373 203.03 63.28 201.406 63.28C199.782 63.28 198.363 63.0373 197.15 62.552C195.955 62.048 194.966 61.348 194.182 60.452C193.416 59.5373 192.838 58.4453 192.446 57.176C192.072 55.9067 191.886 54.4973 191.886 52.948C191.886 50.876 192.222 49.0747 192.894 47.544C193.584 46.0133 194.63 44.828 196.03 43.988C197.448 43.1293 199.25 42.7 201.434 42.7C203.599 42.7 205.382 43.1293 206.782 43.988C208.182 44.828 209.218 46.0227 209.89 47.572C210.58 49.1027 210.926 50.904 210.926 52.976ZM196.338 52.976C196.338 54.376 196.515 55.58 196.87 56.588C197.224 57.596 197.775 58.3707 198.522 58.912C199.268 59.4533 200.23 59.724 201.406 59.724C202.619 59.724 203.59 59.4533 204.318 58.912C205.064 58.3707 205.606 57.596 205.942 56.588C206.296 55.58 206.474 54.376 206.474 52.976C206.474 50.8667 206.082 49.2147 205.298 48.02C204.514 46.8253 203.226 46.228 201.434 46.228C200.239 46.228 199.268 46.4987 198.522 47.04C197.775 47.5813 197.224 48.356 196.87 49.364C196.515 50.372 196.338 51.576 196.338 52.976ZM227.695 43.008V46.508H219.295V63H215.067V43.008H227.695ZM248.359 52.976C248.359 54.5253 248.163 55.9347 247.771 57.204C247.398 58.4547 246.819 59.5373 246.035 60.452C245.27 61.3667 244.281 62.0667 243.067 62.552C241.873 63.0373 240.463 63.28 238.839 63.28C237.215 63.28 235.797 63.0373 234.583 62.552C233.389 62.048 232.399 61.348 231.615 60.452C230.85 59.5373 230.271 58.4453 229.879 57.176C229.506 55.9067 229.319 54.4973 229.319 52.948C229.319 50.876 229.655 49.0747 230.327 47.544C231.018 46.0133 232.063 44.828 233.463 43.988C234.882 43.1293 236.683 42.7 238.867 42.7C241.033 42.7 242.815 43.1293 244.215 43.988C245.615 44.828 246.651 46.0227 247.323 47.572C248.014 49.1027 248.359 50.904 248.359 52.976ZM233.771 52.976C233.771 54.376 233.949 55.58 234.303 56.588C234.658 57.596 235.209 58.3707 235.955 58.912C236.702 59.4533 237.663 59.724 238.839 59.724C240.053 59.724 241.023 59.4533 241.751 58.912C242.498 58.3707 243.039 57.596 243.375 56.588C243.73 55.58 243.907 54.376 243.907 52.976C243.907 50.8667 243.515 49.2147 242.731 48.02C241.947 46.8253 240.659 46.228 238.867 46.228C237.673 46.228 236.702 46.4987 235.955 47.04C235.209 47.5813 234.658 48.356 234.303 49.364C233.949 50.372 233.771 51.576 233.771 52.976ZM78.664 87.976C78.664 89.5253 78.468 90.9347 78.076 92.204C77.7027 93.4547 77.124 94.5373 76.34 95.452C75.5747 96.3667 74.5853 97.0667 73.372 97.552C72.1773 98.0373 70.768 98.28 69.144 98.28C67.52 98.28 66.1013 98.0373 64.888 97.552C63.6933 97.048 62.704 96.348 61.92 95.452C61.1547 94.5373 60.576 93.4453 60.184 92.176C59.8107 90.9067 59.624 89.4973 59.624 87.948C59.624 85.876 59.96 84.0747 60.632 82.544C61.3227 81.0133 62.368 79.828 63.768 78.988C65.1867 78.1293 66.988 77.7 69.172 77.7C71.3373 77.7 73.12 78.1293 74.52 78.988C75.92 79.828 76.956 81.0227 77.628 82.572C78.3187 84.1027 78.664 85.904 78.664 87.976ZM64.076 87.976C64.076 89.376 64.2533 90.58 64.608 91.588C64.9627 92.596 65.5133 93.3707 66.26 93.912C67.0067 94.4533 67.968 94.724 69.144 94.724C70.3573 94.724 71.328 94.4533 72.056 93.912C72.8027 93.3707 73.344 92.596 73.68 91.588C74.0347 90.58 74.212 89.376 74.212 87.976C74.212 85.8667 73.82 84.2147 73.036 83.02C72.252 81.8253 70.964 81.228 69.172 81.228C67.9773 81.228 67.0067 81.4987 66.26 82.04C65.5133 82.5813 64.9627 83.356 64.608 84.364C64.2533 85.372 64.076 86.576 64.076 87.976ZM82.8052 98V78.008H98.6252V98H94.3972V81.536H87.0332V98H82.8052ZM103.668 98V78.008H107.896V85.68H109.268C111.116 85.68 112.638 85.9413 113.832 86.464C115.027 86.9867 115.904 87.7053 116.464 88.62C117.043 89.5347 117.332 90.58 117.332 91.756C117.332 93.0627 117.043 94.1827 116.464 95.116C115.886 96.0493 114.99 96.768 113.776 97.272C112.582 97.7573 111.032 98 109.128 98H103.668ZM109.016 94.528C110.267 94.528 111.247 94.3227 111.956 93.912C112.684 93.5013 113.048 92.7827 113.048 91.756C113.048 91.0467 112.88 90.5053 112.544 90.132C112.227 89.7587 111.751 89.5067 111.116 89.376C110.482 89.2267 109.716 89.152 108.82 89.152H107.896V94.528H109.016ZM119.768 98V78.008H123.996V98H119.768ZM136.743 98H132.515V81.536H127.083V78.008H142.175V81.536H136.743V98ZM155.526 98L154.07 93.24H146.79L145.334 98H140.77L147.826 77.924H153.006L160.09 98H155.526ZM151.606 85.036C151.512 84.7187 151.391 84.3173 151.242 83.832C151.092 83.3467 150.943 82.852 150.794 82.348C150.644 81.844 150.523 81.4053 150.43 81.032C150.336 81.4053 150.206 81.872 150.038 82.432C149.888 82.9733 149.739 83.496 149.59 84C149.459 84.4853 149.356 84.8307 149.282 85.036L147.854 89.684H153.062L151.606 85.036ZM189.968 94.64V103.824H185.88V98H171.18V78.008H175.408V94.472H182.772V78.008H187V94.64H189.968ZM209.351 98H204.535L197.283 87.864V98H193.055V78.008H197.283V87.696L204.451 78.008H208.959L201.679 87.612L209.351 98ZM211.868 78.008H215.676V87.668C215.676 88.1347 215.666 88.6573 215.648 89.236C215.629 89.8147 215.61 90.384 215.592 90.944C215.573 91.4853 215.554 91.9613 215.536 92.372C215.517 92.764 215.498 93.0347 215.48 93.184H215.564L224.804 78.008H229.872V98H226.092V88.396C226.092 87.892 226.101 87.3413 226.12 86.744C226.138 86.128 226.157 85.54 226.176 84.98C226.213 84.42 226.241 83.9347 226.26 83.524C226.297 83.0947 226.325 82.8147 226.344 82.684H226.232L216.964 98H211.868V78.008Z" fill="white"/>
<path d="M209.912 124V119.584C209.912 119.168 210.013 118.795 210.216 118.464C210.419 118.133 210.685 117.872 211.016 117.68C211.347 117.477 211.715 117.376 212.12 117.376H219.032C219.085 117.376 219.128 117.36 219.16 117.328C219.203 117.285 219.224 117.237 219.224 117.184V114.768C219.224 114.715 219.203 114.672 219.16 114.64C219.128 114.597 219.085 114.576 219.032 114.576H212.2C212.147 114.576 212.099 114.597 212.056 114.64C212.024 114.672 212.008 114.715 212.008 114.768V115.552H209.912V114.688C209.912 114.272 210.013 113.899 210.216 113.568C210.419 113.237 210.685 112.976 211.016 112.784C211.347 112.581 211.715 112.48 212.12 112.48H219.112C219.517 112.48 219.885 112.581 220.216 112.784C220.557 112.976 220.824 113.237 221.016 113.568C221.219 113.899 221.32 114.272 221.32 114.688V117.28C221.32 117.675 221.219 118.043 221.016 118.384C220.824 118.715 220.557 118.981 220.216 119.184C219.885 119.387 219.517 119.488 219.112 119.488H212.2C212.147 119.488 212.099 119.509 212.056 119.552C212.024 119.584 212.008 119.627 212.008 119.68V121.712C212.008 121.765 212.024 121.813 212.056 121.856C212.099 121.888 212.147 121.904 212.2 121.904H221.32V124H209.912ZM225.401 124C224.996 124 224.628 123.893 224.297 123.68C223.967 123.456 223.7 123.168 223.497 122.816C223.295 122.464 223.193 122.091 223.193 121.696V114.736C223.193 114.32 223.295 113.947 223.497 113.616C223.7 113.275 223.967 113.003 224.297 112.8C224.628 112.587 224.996 112.48 225.401 112.48H232.393C232.799 112.48 233.167 112.587 233.497 112.8C233.828 113.003 234.095 113.275 234.297 113.616C234.5 113.947 234.601 114.32 234.601 114.736V121.696C234.601 122.091 234.5 122.464 234.297 122.816C234.095 123.168 233.828 123.456 233.497 123.68C233.167 123.893 232.799 124 232.393 124H225.401ZM226.249 121.792H232.313C232.367 121.792 232.409 121.776 232.441 121.744C232.484 121.701 232.505 121.653 232.505 121.6V116.576L226.249 121.792ZM225.289 119.84L231.545 114.624H225.481C225.428 114.624 225.38 114.645 225.337 114.688C225.305 114.72 225.289 114.763 225.289 114.816V119.84ZM236.537 124V119.584C236.537 119.168 236.638 118.795 236.841 118.464C237.044 118.133 237.31 117.872 237.641 117.68C237.972 117.477 238.34 117.376 238.745 117.376H245.657C245.71 117.376 245.753 117.36 245.785 117.328C245.828 117.285 245.849 117.237 245.849 117.184V114.768C245.849 114.715 245.828 114.672 245.785 114.64C245.753 114.597 245.71 114.576 245.657 114.576H238.825C238.772 114.576 238.724 114.597 238.681 114.64C238.649 114.672 238.633 114.715 238.633 114.768V115.552H236.537V114.688C236.537 114.272 236.638 113.899 236.841 113.568C237.044 113.237 237.31 112.976 237.641 112.784C237.972 112.581 238.34 112.48 238.745 112.48H245.737C246.142 112.48 246.51 112.581 246.841 112.784C247.182 112.976 247.449 113.237 247.641 113.568C247.844 113.899 247.945 114.272 247.945 114.688V117.28C247.945 117.675 247.844 118.043 247.641 118.384C247.449 118.715 247.182 118.981 246.841 119.184C246.51 119.387 246.142 119.488 245.737 119.488H238.825C238.772 119.488 238.724 119.509 238.681 119.552C238.649 119.584 238.633 119.627 238.633 119.68V121.712C238.633 121.765 238.649 121.813 238.681 121.856C238.724 121.888 238.772 121.904 238.825 121.904H247.945V124H236.537ZM251.978 124C251.562 124 251.189 123.899 250.858 123.696C250.528 123.493 250.261 123.227 250.058 122.896C249.856 122.565 249.754 122.197 249.754 121.792V121.104H251.85V121.712C251.85 121.765 251.866 121.813 251.898 121.856C251.941 121.888 251.989 121.904 252.042 121.904H258.874C258.928 121.904 258.976 121.888 259.018 121.856C259.061 121.813 259.082 121.765 259.082 121.712V119.408C259.082 119.355 259.061 119.312 259.018 119.28C258.976 119.237 258.928 119.216 258.874 119.216H251.738V117.12H258.426C258.48 117.12 258.522 117.104 258.554 117.072C258.597 117.029 258.618 116.981 258.618 116.928V114.768C258.618 114.715 258.597 114.672 258.554 114.64C258.522 114.597 258.48 114.576 258.426 114.576H252.042C251.989 114.576 251.941 114.597 251.898 114.64C251.866 114.672 251.85 114.715 251.85 114.768V115.52H249.754V114.688C249.754 114.272 249.856 113.899 250.058 113.568C250.261 113.237 250.528 112.976 250.858 112.784C251.189 112.581 251.562 112.48 251.978 112.48H258.506C258.922 112.48 259.296 112.581 259.626 112.784C259.957 112.976 260.218 113.237 260.41 113.568C260.613 113.899 260.714 114.272 260.714 114.688V117.024C260.714 117.152 260.704 117.285 260.682 117.424C260.661 117.552 260.629 117.675 260.586 117.792C260.778 117.995 260.922 118.235 261.018 118.512C261.125 118.779 261.178 119.051 261.178 119.328V121.792C261.178 122.197 261.077 122.565 260.874 122.896C260.672 123.227 260.405 123.493 260.074 123.696C259.744 123.899 259.376 124 258.97 124H251.978Z" fill="white"/>
<path d="M141.288 114.432C140.829 114.432 140.419 114.523 140.056 114.704C139.704 114.885 139.405 115.147 139.16 115.488C138.915 115.819 138.728 116.224 138.6 116.704C138.483 117.184 138.424 117.723 138.424 118.32C138.424 119.131 138.52 119.824 138.712 120.4C138.915 120.965 139.229 121.397 139.656 121.696C140.083 121.995 140.627 122.144 141.288 122.144C141.757 122.144 142.221 122.091 142.68 121.984C143.149 121.877 143.656 121.728 144.2 121.536V123.568C143.699 123.771 143.203 123.92 142.712 124.016C142.221 124.112 141.672 124.16 141.064 124.16C139.891 124.16 138.92 123.92 138.152 123.44C137.395 122.949 136.835 122.267 136.472 121.392C136.109 120.507 135.928 119.477 135.928 118.304C135.928 117.44 136.045 116.651 136.28 115.936C136.515 115.211 136.856 114.587 137.304 114.064C137.763 113.541 138.323 113.136 138.984 112.848C139.656 112.56 140.424 112.416 141.288 112.416C141.853 112.416 142.419 112.491 142.984 112.64C143.56 112.779 144.109 112.971 144.632 113.216L143.848 115.184C143.421 114.981 142.989 114.805 142.552 114.656C142.125 114.507 141.704 114.432 141.288 114.432ZM146.628 112.576H148.804V118.096C148.804 118.363 148.798 118.661 148.788 118.992C148.777 119.323 148.766 119.648 148.756 119.968C148.745 120.277 148.734 120.549 148.724 120.784C148.713 121.008 148.702 121.163 148.692 121.248H148.74L154.02 112.576H156.916V124H154.756V118.512C154.756 118.224 154.761 117.909 154.772 117.568C154.782 117.216 154.793 116.88 154.804 116.56C154.825 116.24 154.841 115.963 154.852 115.728C154.873 115.483 154.889 115.323 154.9 115.248H154.836L149.54 124H146.628V112.576ZM163.447 112.576C164.919 112.576 165.991 112.896 166.663 113.536C167.346 114.165 167.687 115.035 167.687 116.144C167.687 116.645 167.613 117.125 167.463 117.584C167.314 118.032 167.063 118.437 166.711 118.8C166.37 119.152 165.917 119.429 165.351 119.632C164.786 119.835 164.087 119.936 163.255 119.936H162.215V124H159.799V112.576H163.447ZM163.319 114.56H162.215V117.952H163.015C163.474 117.952 163.869 117.893 164.199 117.776C164.53 117.659 164.786 117.472 164.967 117.216C165.149 116.96 165.239 116.629 165.239 116.224C165.239 115.659 165.085 115.243 164.775 114.976C164.466 114.699 163.981 114.56 163.319 114.56ZM169.846 112.576H172.022V118.096C172.022 118.363 172.017 118.661 172.006 118.992C171.996 119.323 171.985 119.648 171.974 119.968C171.964 120.277 171.953 120.549 171.942 120.784C171.932 121.008 171.921 121.163 171.91 121.248H171.958L177.238 112.576H180.134V124H177.974V118.512C177.974 118.224 177.98 117.909 177.99 117.568C178.001 117.216 178.012 116.88 178.022 116.56C178.044 116.24 178.06 115.963 178.07 115.728C178.092 115.483 178.108 115.323 178.118 115.248H178.054L172.758 124H169.846V112.576ZM188.65 120.656C188.33 121.381 187.989 122.011 187.626 122.544C187.274 123.067 186.821 123.467 186.266 123.744C185.711 124.021 184.986 124.16 184.09 124.16C183.813 124.16 183.509 124.139 183.178 124.096C182.847 124.053 182.543 123.995 182.266 123.92V121.84C182.522 121.947 182.805 122.021 183.114 122.064C183.423 122.107 183.711 122.128 183.978 122.128C184.33 122.128 184.613 122.069 184.826 121.952C185.05 121.835 185.226 121.675 185.354 121.472C185.493 121.259 185.605 121.029 185.69 120.784L181.738 112.576H184.298L186.426 117.52C186.479 117.627 186.543 117.765 186.618 117.936C186.693 118.107 186.767 118.283 186.842 118.464C186.917 118.645 186.975 118.805 187.018 118.944H187.098C187.141 118.816 187.194 118.661 187.258 118.48C187.333 118.288 187.407 118.096 187.482 117.904C187.567 117.701 187.642 117.525 187.706 117.376L189.69 112.576H192.186L188.65 120.656ZM198.319 114.432C197.861 114.432 197.45 114.523 197.087 114.704C196.735 114.885 196.437 115.147 196.191 115.488C195.946 115.819 195.759 116.224 195.631 116.704C195.514 117.184 195.455 117.723 195.455 118.32C195.455 119.131 195.551 119.824 195.743 120.4C195.946 120.965 196.261 121.397 196.687 121.696C197.114 121.995 197.658 122.144 198.319 122.144C198.789 122.144 199.253 122.091 199.711 121.984C200.181 121.877 200.687 121.728 201.231 121.536V123.568C200.73 123.771 200.234 123.92 199.743 124.016C199.253 124.112 198.703 124.16 198.095 124.16C196.922 124.16 195.951 123.92 195.183 123.44C194.426 122.949 193.866 122.267 193.503 121.392C193.141 120.507 192.959 119.477 192.959 118.304C192.959 117.44 193.077 116.651 193.311 115.936C193.546 115.211 193.887 114.587 194.335 114.064C194.794 113.541 195.354 113.136 196.015 112.848C196.687 112.56 197.455 112.416 198.319 112.416C198.885 112.416 199.45 112.491 200.015 112.64C200.591 112.779 201.141 112.971 201.663 113.216L200.879 115.184C200.453 114.981 200.021 114.805 199.583 114.656C199.157 114.507 198.735 114.432 198.319 114.432Z" fill="white"/>
<path d="M45 8C33.0653 8 21.6193 12.7411 13.1802 21.1802C4.74106 29.6193 1.04337e-06 41.0653 0 53C-1.04337e-06 64.9347 4.74106 76.3807 13.1802 84.8198C21.6193 93.2589 33.0653 98 45 98L45 53V8Z" fill="white"/>
<path d="M263 98C274.935 98 286.381 93.2589 294.82 84.8198C303.259 76.3807 308 64.9347 308 53C308 41.0653 303.259 29.6193 294.82 21.1802C286.381 12.7411 274.935 8 263 8L263 53L263 98Z" fill="white"/>
</svg>
