<svg width="64" height="64" viewBox="0 0 64 64" fill="none" xmlns="http://www.w3.org/2000/svg">
<path d="M6 4.33398H50C53.0376 4.33398 55.5 6.79642 55.5 9.83398V53.834C55.5 56.8715 53.0376 59.334 50 59.334H6C2.96243 59.334 0.5 56.8715 0.5 53.834V9.83398C0.5 6.79642 2.96243 4.33398 6 4.33398Z" fill="#D9D9D9" stroke="#D9D9D9"/>
<path d="M14 8.3335H58C61.0376 8.3335 63.5 10.7959 63.5 13.8335V57.8335C63.5 60.8711 61.0376 63.3335 58 63.3335H14C10.9624 63.3335 8.49999 60.8711 8.49999 57.8335V13.8335C8.49999 10.7959 10.9624 8.3335 14 8.3335Z" fill="white" stroke="#D9D9D9"/>
<path d="M44.6666 15.667H58C58.4602 15.667 58.8333 16.0401 58.8333 16.5003C58.8333 16.9606 58.4602 17.3337 58 17.3337H44.6666C44.2064 17.3337 43.8333 16.9606 43.8333 16.5003C43.8333 16.0401 44.2064 15.667 44.6666 15.667Z" fill="#D9D9D9" stroke="#D9D9D9"/>
<path d="M16 49.0005H18.6667C20.5997 49.0005 22.1667 50.5675 22.1667 52.5005V55.1672C22.1667 57.1001 20.5997 58.6672 18.6667 58.6672H16C14.067 58.6672 12.5 57.1001 12.5 55.1672V52.5005C12.5 50.5675 14.067 49.0005 16 49.0005Z" fill="#D9D9D9" stroke="#D9D9D9"/>
<path d="M29.3333 49.0005H56C57.933 49.0005 59.5 50.5675 59.5 52.5005V55.1672C59.5 57.1001 57.933 58.6672 56 58.6672H29.3333C27.4003 58.6672 25.8333 57.1001 25.8333 55.1672V52.5005C25.8333 50.5675 27.4003 49.0005 29.3333 49.0005Z" stroke="#D9D9D9"/>
<path d="M10.6667 5.66699H37.3333C39.2663 5.66699 40.8333 7.234 40.8333 9.16699V29.167C40.8333 31.1 39.2663 32.667 37.3333 32.667H10.6667C8.73367 32.667 7.16667 31.1 7.16667 29.167V9.16699C7.16667 7.234 8.73367 5.66699 10.6667 5.66699Z" fill="white" stroke="#D9D9D9"/>
<path d="M13.3333 36.3335H58.6667C59.1269 36.3335 59.5 36.7066 59.5 37.1668C59.5 37.6271 59.1269 38.0002 58.6667 38.0002H13.3333C12.8731 38.0002 12.5 37.6271 12.5 37.1668C12.5 36.7066 12.8731 36.3335 13.3333 36.3335Z" stroke="#D9D9D9"/>
<path d="M13.3333 41.6665H58.6667C59.1269 41.6665 59.5 42.0396 59.5 42.4998C59.5 42.9601 59.1269 43.3332 58.6667 43.3332H13.3333C12.8731 43.3332 12.5 42.9601 12.5 42.4998C12.5 42.0396 12.8731 41.6665 13.3333 41.6665Z" stroke="#D9D9D9"/>
<path d="M15.5 4.4996C15.5 0.500072 22.6663 0.5 22.6663 4.49994V15.6669C22.6663 20.3336 15.9997 20.3336 15.9997 15.6669V11.0002" stroke="#D9D9D9" stroke-width="3" stroke-linecap="round" stroke-linejoin="round"/>
</svg>
