<svg width="64" height="64" viewBox="0 0 64 64" fill="none" xmlns="http://www.w3.org/2000/svg">
<path d="M10.2667 8.5H58C61.0376 8.5 63.5 10.9624 63.5 14V58C63.5 61.0376 61.0376 63.5 58 63.5H10.2667C7.22911 63.5 4.76667 61.0376 4.76667 58V14C4.76667 10.9624 7.2291 8.5 10.2667 8.5Z" fill="#D9D9D9" stroke="#D9D9D9"/>
<path d="M6 4.5H53.7333C56.7709 4.5 59.2333 6.96243 59.2333 10V54C59.2333 57.0376 56.7709 59.5 53.7333 59.5H6.00001C2.96244 59.5 0.5 57.0376 0.5 54V10C0.5 6.96243 2.96243 4.5 6 4.5Z" fill="white" stroke="#D9D9D9"/>
<path d="M12.7115 39.833H47.0226C47.4828 39.833 47.8559 40.2061 47.8559 40.6663C47.8559 41.1266 47.4828 41.4997 47.0226 41.4997H12.7115C12.2512 41.4997 11.8781 41.1266 11.8781 40.6663C11.8781 40.2061 12.2512 39.833 12.7115 39.833Z" fill="#D9D9D9" stroke="#D9D9D9"/>
<path d="M12.7115 47.833H39.9115C40.3717 47.833 40.7448 48.2061 40.7448 48.6663C40.7448 49.1266 40.3717 49.4997 39.9115 49.4997H12.7115C12.2512 49.4997 11.8781 49.1266 11.8781 48.6663C11.8781 48.2061 12.2512 47.833 12.7115 47.833Z" fill="#D9D9D9" stroke="#D9D9D9"/>
<path d="M35.0559 6.66634C35.0559 9.30581 32.7636 11.4997 29.867 11.4997C26.9704 11.4997 24.6781 9.30581 24.6781 6.66634C24.6781 4.02687 26.9704 1.83301 29.867 1.83301C32.7636 1.83301 35.0559 4.02687 35.0559 6.66634Z" fill="#D9D9D9" stroke="#D9D9D9"/>
<ellipse cx="27.2" cy="4.5" rx="4.8" ry="4.5" fill="white"/>
<path d="M30.7885 4C30.7885 5.90309 29.133 7.5 27.0219 7.5C24.9107 7.5 23.2552 5.90309 23.2552 4C23.2552 2.09691 24.9107 0.5 27.0219 0.5C29.133 0.5 30.7885 2.09691 30.7885 4Z" fill="#D9D9D9" stroke="#D9D9D9"/>
<path d="M4.26667 49.3337C4.26667 54.667 5.68889 56.0003 11.3778 56.0003M4.26667 45.3337V26.667" stroke="#D9D9D9" stroke-width="2" stroke-linecap="round" stroke-linejoin="round"/>
<path d="M14.9333 19.3331C14.9333 13.9997 23.4667 13.9998 23.4667 19.333" stroke="#D9D9D9" stroke-width="3" stroke-linecap="round" stroke-linejoin="round"/>
<path d="M36.2667 19.3329C36.2667 13.9996 44.8 13.9999 44.8 19.3331" stroke="#D9D9D9" stroke-width="3" stroke-linecap="round" stroke-linejoin="round"/>
<path d="M23.4667 25.3332C23.4667 30.6665 36.2667 30.6663 36.2667 25.3331" stroke="#D9D9D9" stroke-width="3" stroke-linecap="round" stroke-linejoin="round"/>
</svg>
