<svg width="36" height="36" viewBox="0 0 36 36" fill="none" xmlns="http://www.w3.org/2000/svg">
<g clip-path="url(#clip0)">
<path d="M8.43352 11.822H1.48371C1.18172 11.822 0.93689 11.5772 0.93689 11.2752V9.74103C0.93689 7.51987 2.73752 5.71924 4.95869 5.71924C7.17985 5.71924 8.98048 7.51987 8.98048 9.74103V11.2752C8.98034 11.5772 8.73559 11.822 8.43352 11.822Z" fill="#829DF2"/>
<path d="M12.5126 25.4395C11.7335 24.9251 11.233 24.3354 11.0249 23.6868C9.71356 23.13 8.86707 21.827 8.86707 20.3626C8.86707 18.3809 10.4288 16.7686 12.3485 16.7686H16.7793C18.699 16.7686 20.2608 18.3809 20.2608 20.3626C20.2608 22.3444 18.6991 23.9567 16.7793 23.9567H13.3434C13.3139 24.2532 13.3259 24.562 13.3789 24.8749L13.5382 25.8141C13.5601 25.9435 13.4172 26.0366 13.3077 25.9644L12.5126 25.4395Z" fill="#DD5151"/>
<path d="M20.2607 20.3626C20.2607 18.3809 18.699 16.7686 16.7793 16.7686H12.3485C11.8488 16.7686 11.3738 16.8787 10.9438 17.0753C11.1288 20.0506 13.6563 22.3747 16.6687 22.3747H19.6626C20.04 21.8002 20.2607 21.1075 20.2607 20.3626Z" fill="#E21A1A"/>
<path d="M21.6474 22.8787C21.7583 22.4013 21.7906 21.9328 21.7438 21.4856H17.442C15.0229 21.4856 13.0042 19.5646 12.9673 17.1457C12.9298 14.6837 14.9216 12.6689 17.3751 12.6689H22.9359C25.3602 12.6689 27.3772 14.6002 27.4056 17.0243C27.427 18.8436 26.3488 20.4677 24.6693 21.1564C24.3078 22.2512 23.2793 23.0317 22.4782 23.4943L21.6529 23.9709C21.5392 24.0366 21.4021 23.9349 21.4317 23.8071L21.6474 22.8787Z" fill="#829DF2"/>
<path d="M16.5705 18.3432C16.5329 15.8812 18.5247 13.8664 20.9782 13.8664H25.9923C25.1887 13.1232 24.1106 12.6689 22.9359 12.6689H17.3751C14.9216 12.6689 12.9298 14.6837 12.9673 17.1457C13.0042 19.5645 15.0229 21.4856 17.442 21.4856H17.9855C17.1335 20.6985 16.5895 19.587 16.5705 18.3432Z" fill="#5C81F7"/>
<path d="M34.4832 11.822H27.5334C27.2314 11.822 26.9866 11.5772 26.9866 11.2752V9.74103C26.9866 7.51987 28.7872 5.71924 31.0084 5.71924C33.2295 5.71924 35.0302 7.51987 35.0302 9.74103V11.2752C35.03 11.5772 34.7852 11.822 34.4832 11.822Z" fill="#DD5151"/>
<path d="M8.43352 33.3046H1.48371C1.18172 33.3046 0.93689 33.0598 0.93689 32.7577V31.2236C0.93689 29.0024 2.73752 27.2018 4.95869 27.2018C7.17985 27.2018 8.98048 29.0024 8.98048 31.2236V32.7577C8.98034 33.0597 8.73559 33.3046 8.43352 33.3046Z" fill="#DD5151"/>
<path d="M34.4832 33.3046H27.5334C27.2314 33.3046 26.9866 33.0598 26.9866 32.7577V31.2236C26.9866 29.0024 28.7872 27.2018 31.0084 27.2018C33.2295 27.2018 35.0302 29.0024 35.0302 31.2236V32.7577C35.03 33.0597 34.7852 33.3046 34.4832 33.3046Z" fill="#829DF2"/>
<path d="M4.02752 11.2752V9.74103C4.02752 8.06753 5.04993 6.63316 6.50406 6.02735C6.02826 5.82914 5.5064 5.71924 4.95881 5.71924C2.73764 5.71924 0.937012 7.51987 0.937012 9.74103V11.2752C0.937012 11.5772 1.18184 11.822 1.4839 11.822H4.57434C4.27235 11.822 4.02752 11.5772 4.02752 11.2752Z" fill="#5C81F7"/>
<path d="M30.0768 11.2752V9.74103C30.0768 8.06753 31.0992 6.63316 32.5534 6.02735C32.0776 5.82914 31.5557 5.71924 31.0081 5.71924C28.787 5.71924 26.9863 7.51987 26.9863 9.74103V11.2752C26.9863 11.5772 27.2312 11.822 27.5332 11.822H30.6237C30.3217 11.822 30.0768 11.5772 30.0768 11.2752Z" fill="#E21A1A"/>
<path d="M4.02752 32.7577V31.2236C4.02752 29.5501 5.04993 28.1156 6.50406 27.5099C6.02826 27.3118 5.5064 27.2018 4.95881 27.2018C2.73764 27.2018 0.937012 29.0024 0.937012 31.2236V32.7577C0.937012 33.0597 1.18184 33.3046 1.4839 33.3046H4.57434C4.27235 33.3046 4.02752 33.0597 4.02752 32.7577Z" fill="#E21A1A"/>
<path d="M30.0768 32.7577V31.2236C30.0768 29.5501 31.0992 28.1156 32.5534 27.5099C32.0776 27.3118 31.5557 27.2018 31.0081 27.2018C28.787 27.2018 26.9863 29.0024 26.9863 31.2236V32.7577C26.9863 33.0597 27.2312 33.3046 27.5332 33.3046H30.6237C30.3217 33.3046 30.0768 33.0597 30.0768 32.7577Z" fill="#5C81F7"/>
<path d="M4.92395 8.00892C3.4869 8.00892 2.31775 6.83977 2.31775 5.40266C2.31775 3.96554 3.4869 2.79639 4.92395 2.79639C6.36106 2.79639 7.53022 3.96554 7.53022 5.40266C7.53022 6.83977 6.36106 8.00892 4.92395 8.00892Z" fill="#FAD393"/>
<path d="M30.9734 8.00892C29.5363 8.00892 28.3672 6.83977 28.3672 5.40266C28.3672 3.96554 29.5363 2.79639 30.9734 2.79639C32.4105 2.79639 33.5797 3.96554 33.5797 5.40266C33.5797 6.83977 32.4105 8.00892 30.9734 8.00892Z" fill="#FAD393"/>
<path d="M4.92395 29.4913C3.4869 29.4913 2.31775 28.3221 2.31775 26.8851C2.31775 25.448 3.4869 24.2788 4.92395 24.2788C6.36106 24.2788 7.53022 25.448 7.53022 26.8851C7.53022 28.3222 6.36106 29.4913 4.92395 29.4913Z" fill="#FAD393"/>
<path d="M30.9734 29.4913C29.5363 29.4913 28.3672 28.3221 28.3672 26.8851C28.3672 25.448 29.5363 24.2788 30.9734 24.2788C32.4105 24.2788 33.5797 25.448 33.5797 26.8851C33.5797 28.3222 32.4105 29.4913 30.9734 29.4913Z" fill="#FAD393"/>
<path d="M4.77917 5.40273C4.77917 4.41048 5.33661 3.5462 6.15469 3.10604C5.78794 2.90875 5.36881 2.79639 4.92394 2.79639C3.4869 2.79639 2.31775 3.96554 2.31775 5.40266C2.31775 6.83977 3.4869 8.00892 4.92394 8.00892C5.36881 8.00892 5.78787 7.89663 6.15469 7.69927C5.33661 7.25925 4.77917 6.39497 4.77917 5.40273Z" fill="#EDB769"/>
<path d="M30.8287 5.40273C30.8287 4.41048 31.3862 3.5462 32.2043 3.10604C31.8374 2.90875 31.4184 2.79639 30.9735 2.79639C29.5365 2.79639 28.3673 3.96554 28.3673 5.40266C28.3673 6.83977 29.5365 8.00892 30.9735 8.00892C31.4184 8.00892 31.8374 7.89663 32.2043 7.69927C31.3862 7.25925 30.8287 6.39497 30.8287 5.40273Z" fill="#EDB769"/>
<path d="M4.77917 26.8852C4.77917 25.8929 5.33661 25.0286 6.15469 24.5885C5.78794 24.3912 5.36881 24.2788 4.92394 24.2788C3.4869 24.2788 2.31775 25.448 2.31775 26.8851C2.31775 28.3222 3.4869 29.4913 4.92394 29.4913C5.36881 29.4913 5.78787 29.3791 6.15469 29.1817C5.33661 28.7416 4.77917 27.8773 4.77917 26.8852Z" fill="#EDB769"/>
<path d="M30.8287 26.8852C30.8287 25.8929 31.3862 25.0286 32.2043 24.5885C31.8374 24.3912 31.4184 24.2788 30.9735 24.2788C29.5365 24.2788 28.3673 25.448 28.3673 26.8851C28.3673 28.3222 29.5365 29.4913 30.9735 29.4913C31.4184 29.4913 31.8374 29.3791 32.2043 29.1817C31.3862 28.7416 30.8287 27.8773 30.8287 26.8852Z" fill="#EDB769"/>
<path d="M9.27212 3.5277C9.37197 3.5277 9.47308 3.5021 9.56561 3.44845C10.128 3.12199 10.7153 2.82556 11.311 2.56723C11.6078 2.43849 11.744 2.09368 11.6153 1.79689C11.4866 1.50017 11.1417 1.3639 10.845 1.49258C10.2076 1.76897 9.57932 2.08615 8.97759 2.43539C8.69774 2.59782 8.60268 2.95613 8.76503 3.2359C8.87373 3.42314 9.07019 3.5277 9.27212 3.5277Z" fill="black"/>
<path d="M20.8958 1.43374C21.5366 1.54484 22.1773 1.69495 22.8002 1.87994C22.8559 1.89647 22.912 1.90434 22.9673 1.90434C23.2198 1.90434 23.4528 1.73967 23.5285 1.48521C23.6207 1.17513 23.4439 0.849095 23.1338 0.757056C22.4672 0.559127 21.7817 0.398393 21.096 0.279565C20.7775 0.224369 20.4741 0.437838 20.4189 0.756564C20.3636 1.07536 20.5771 1.37848 20.8958 1.43374Z" fill="black"/>
<path d="M16.9594 1.2162C16.971 1.2162 16.9827 1.21592 16.9945 1.21515C17.3269 1.19553 17.6646 1.18562 17.9982 1.18562C17.9989 1.18562 17.9994 1.18562 18 1.18562C18.317 1.18562 18.6373 1.19455 18.952 1.21212C19.2766 1.23062 19.5514 0.982976 19.5694 0.660031C19.5873 0.337086 19.3402 0.0606181 19.0173 0.0426181C18.681 0.0238447 18.3387 0.0142822 18.0001 0.0142822C17.9994 0.0142822 17.9989 0.0142822 17.9982 0.0142822C17.6418 0.0142822 17.2808 0.0248291 16.9256 0.0458525C16.6027 0.0649071 16.3564 0.342078 16.3754 0.664953C16.3936 0.976155 16.6518 1.2162 16.9594 1.2162Z" fill="black"/>
<path d="M34.8048 13.3932C34.4901 13.4682 34.2959 13.7841 34.3708 14.0987C34.5214 14.7305 34.6362 15.3786 34.7123 16.0249C34.7474 16.3229 35.0004 16.5422 35.2932 16.5422C35.3161 16.5422 35.3392 16.5409 35.3624 16.5382C35.6836 16.5003 35.9134 16.2093 35.8756 15.888C35.7942 15.1966 35.6713 14.5032 35.5103 13.8273C35.4352 13.5125 35.1195 13.3181 34.8048 13.3932Z" fill="black"/>
<path d="M33.8185 23.7701C33.7079 24.0741 33.8647 24.4102 34.1687 24.5208C34.2348 24.5449 34.3024 24.5562 34.3689 24.5562C34.6082 24.5562 34.8328 24.4085 34.9193 24.1706C35.1575 23.5164 35.3591 22.8413 35.5191 22.1639C35.5934 21.8491 35.3984 21.5336 35.0836 21.4594C34.7692 21.3852 34.4533 21.5799 34.379 21.8949C34.2295 22.5279 34.041 23.1588 33.8185 23.7701Z" fill="black"/>
<path d="M24.6403 2.54629C25.2374 2.80293 25.8259 3.09789 26.39 3.42287C26.4822 3.47596 26.5826 3.5012 26.6819 3.5012C26.8845 3.5012 27.0815 3.39594 27.1899 3.20786C27.3514 2.92759 27.2552 2.56949 26.9748 2.40799C26.3714 2.06022 25.7416 1.74473 25.1028 1.47016C24.8055 1.34205 24.4612 1.47972 24.3335 1.77693C24.2058 2.07407 24.3432 2.41846 24.6403 2.54629Z" fill="black"/>
<path d="M0.919905 21.4778C0.605187 21.5525 0.410562 21.8681 0.485163 22.1829C0.645757 22.86 0.848046 23.5345 1.08662 24.1879C1.17331 24.4255 1.39782 24.5728 1.63681 24.5728C1.70347 24.5728 1.77139 24.5614 1.83762 24.5371C2.14144 24.4262 2.29789 24.09 2.18693 23.7861C1.96411 23.1757 1.77497 22.5454 1.62493 21.9126C1.55026 21.5979 1.23526 21.4032 0.919905 21.4778Z" fill="black"/>
<path d="M12.9793 1.92042C13.0351 1.92042 13.0919 1.9124 13.1482 1.89546C13.7702 1.7085 14.4105 1.55627 15.0511 1.44307C15.3697 1.38675 15.5823 1.08293 15.526 0.764413C15.4697 0.445828 15.1661 0.233344 14.8473 0.289523C14.1619 0.410601 13.4767 0.573515 12.8109 0.773624C12.5011 0.866788 12.3255 1.19339 12.4186 1.50311C12.4948 1.7568 12.7275 1.92042 12.9793 1.92042Z" fill="black"/>
<path d="M35.4142 17.3915C35.0907 17.3915 34.8286 17.6537 34.8286 17.9771V18.0142C34.8286 18.6665 34.7908 19.3239 34.7165 19.968C34.6793 20.2893 34.9097 20.5799 35.2309 20.6171C35.2539 20.6197 35.2764 20.621 35.299 20.621C35.5923 20.621 35.8455 20.401 35.8801 20.1026C35.9597 19.414 36 18.7113 36 18.0142V17.9772C35.9999 17.6537 35.7377 17.3915 35.4142 17.3915Z" fill="black"/>
<path d="M20.9311 34.5884C20.2921 34.7006 19.6382 34.7766 18.9875 34.8142C18.6646 34.8329 18.418 35.1098 18.4367 35.4327C18.4546 35.7441 18.7129 35.9845 19.0208 35.9845C19.0321 35.9845 19.0437 35.9842 19.0552 35.9835C19.7509 35.9433 20.4503 35.862 21.1336 35.742C21.4522 35.686 21.6652 35.3824 21.6092 35.0638C21.5533 34.7454 21.2495 34.5324 20.9311 34.5884Z" fill="black"/>
<path d="M17.03 34.8152C16.3792 34.7782 15.7253 34.7029 15.0865 34.5915C14.7672 34.5357 14.4644 34.7491 14.4087 35.0677C14.3531 35.3864 14.5664 35.6898 14.8849 35.7454C15.5684 35.8646 16.2677 35.9452 16.9637 35.9847C16.9749 35.9854 16.9862 35.9856 16.9974 35.9856C17.3057 35.9856 17.564 35.7447 17.5816 35.4332C17.5999 35.1102 17.353 34.8336 17.03 34.8152Z" fill="black"/>
<path d="M13.1824 34.1433C12.5594 33.9575 11.9406 33.7327 11.3431 33.475C11.0462 33.347 10.7014 33.4838 10.5735 33.7809C10.4453 34.0779 10.5823 34.4225 10.8793 34.5506C11.5188 34.8263 12.181 35.0668 12.8477 35.2657C12.9035 35.2823 12.9599 35.2903 13.0153 35.2903C13.2676 35.2903 13.5006 35.1259 13.5764 34.8718C13.6688 34.562 13.4924 34.2358 13.1824 34.1433Z" fill="black"/>
<path d="M0.632953 16.5934C0.655664 16.596 0.678094 16.5973 0.700383 16.5973C0.994007 16.5973 1.24734 16.3769 1.28144 16.0782C1.35548 15.4316 1.46826 14.7832 1.61676 14.151C1.69066 13.8361 1.4954 13.5208 1.18048 13.4469C0.865617 13.3727 0.550266 13.5682 0.476297 13.8832C0.317532 14.5595 0.196805 15.2532 0.117634 15.9449C0.0807901 16.2663 0.311555 16.5566 0.632953 16.5934Z" fill="black"/>
<path d="M24.6725 33.4685C24.0754 33.7267 23.4571 33.952 22.8347 34.1384C22.5248 34.2312 22.3489 34.5576 22.4416 34.8675C22.5176 35.1214 22.7504 35.2854 23.0025 35.2854C23.0581 35.2854 23.1147 35.2773 23.1708 35.2606C23.8369 35.0611 24.4985 34.82 25.1375 34.5437C25.4343 34.4153 25.571 34.0706 25.4426 33.7737C25.3142 33.4768 24.9696 33.3402 24.6725 33.4685Z" fill="black"/>
<path d="M0.771608 20.6355C1.09294 20.598 1.32293 20.3072 1.28545 19.9859C1.21036 19.3419 1.17197 18.6845 1.17133 18.0321C1.17105 17.7088 0.908858 17.447 0.585702 17.447C0.585562 17.447 0.585351 17.447 0.585069 17.447C0.261633 17.4474 -0.000281023 17.7098 2.26298e-07 18.0333C0.00070335 18.7304 0.0417658 19.4331 0.122062 20.1216C0.156867 20.4198 0.409921 20.6394 0.702983 20.6394C0.725624 20.6394 0.748616 20.6382 0.771608 20.6355Z" fill="black"/>
<path d="M1.57531 12.2891H8.34203C9.02842 12.2891 9.58684 11.7307 9.58684 11.0443V9.63308C9.58684 9.16444 9.51076 8.70376 9.36057 8.26381C9.26628 7.98763 8.96556 7.84018 8.68986 7.9344C8.41361 8.02869 8.26616 8.32892 8.36045 8.60518C8.47302 8.93494 8.53004 9.28088 8.53004 9.63315V11.0444C8.53004 11.1481 8.44574 11.2324 8.34203 11.2324H1.57524C1.47153 11.2324 1.38722 11.1481 1.38722 11.0444V9.63315C1.38722 8.72429 1.77752 7.86324 2.44662 7.2632C3.0127 8.01498 3.91235 8.5021 4.92379 8.5021C6.6328 8.5021 8.02323 7.11167 8.02323 5.40266C8.02323 3.69365 6.63287 2.30322 4.92393 2.30322C3.21499 2.30322 1.82449 3.69365 1.82449 5.40266C1.82449 5.71351 1.87097 6.01354 1.95654 6.29682C0.934761 7.09782 0.330566 8.32822 0.330566 9.63322V11.0445C0.330496 11.7307 0.888917 12.2891 1.57531 12.2891ZM4.92393 3.35995C6.05027 3.35995 6.96665 4.27626 6.96665 5.40266C6.96665 6.52907 6.05034 7.44538 4.92393 7.44538C3.79767 7.44538 2.88129 6.52907 2.88129 5.40266C2.88129 4.27626 3.79753 3.35995 4.92393 3.35995Z" fill="black"/>
<path d="M26.413 9.6332V11.0444C26.413 11.7308 26.9713 12.2892 27.6578 12.2892H34.4245C35.1109 12.2892 35.6693 11.7308 35.6693 11.0444V9.6332C35.6693 9.16457 35.5932 8.70388 35.443 8.26393C35.3487 7.98775 35.0482 7.8403 34.7723 7.93452C34.4961 8.02881 34.3486 8.32904 34.4429 8.6053C34.5554 8.93507 34.6125 9.281 34.6125 9.63327V11.0445C34.6125 11.1482 34.5282 11.2325 34.4245 11.2325H27.6578C27.5541 11.2325 27.4698 11.1482 27.4698 11.0445V9.63327C27.4698 8.72441 27.8601 7.86337 28.5292 7.26332C29.0952 8.0151 29.9949 8.50222 31.0063 8.50222C32.7153 8.50222 34.1058 7.1118 34.1058 5.40278C34.1058 3.69377 32.7153 2.30334 31.0063 2.30334C29.2973 2.30334 27.907 3.69377 27.907 5.40278C27.907 5.71363 27.9534 6.01366 28.039 6.29695C27.0171 7.09787 26.413 8.3282 26.413 9.6332ZM31.0063 3.36C32.1326 3.36 33.049 4.27631 33.049 5.40271C33.049 6.52912 32.1327 7.44543 31.0063 7.44543C29.88 7.44543 28.9636 6.52912 28.9636 5.40271C28.9636 4.27631 29.88 3.36 31.0063 3.36Z" fill="black"/>
<path d="M34.7723 29.3706C34.496 29.4648 34.3486 29.7651 34.4428 30.0413C34.5553 30.3711 34.6124 30.717 34.6124 31.0693V32.4805C34.6124 32.5843 34.5281 32.6686 34.4244 32.6686H27.6577C27.554 32.6686 27.4697 32.5843 27.4697 32.4805V31.0693C27.4697 30.1604 27.86 29.2994 28.5291 28.6994C29.0952 29.4511 29.9948 29.9383 31.0063 29.9383C32.7153 29.9383 34.1057 28.5478 34.1057 26.8388C34.1057 25.1298 32.7153 23.7394 31.0063 23.7394C29.2972 23.7394 27.9069 25.1298 27.9069 26.8388C27.9069 27.1497 27.9534 27.4497 28.0389 27.733C27.0172 28.534 26.413 29.7644 26.413 31.0694V32.4806C26.413 33.167 26.9713 33.7254 27.6578 33.7254H34.4245C35.1109 33.7254 35.6693 33.1671 35.6693 32.4806V31.0694C35.6693 30.6007 35.5932 30.1401 35.443 29.7001C35.3487 29.4237 35.048 29.2762 34.7723 29.3706ZM31.0063 24.796C32.1326 24.796 33.049 25.7123 33.049 26.8387C33.049 27.9652 32.1327 28.8815 31.0063 28.8815C29.88 28.8815 28.9636 27.9652 28.9636 26.8387C28.9636 25.7123 29.88 24.796 31.0063 24.796Z" fill="black"/>
<path d="M8.68986 29.3706C8.4136 29.4648 8.26616 29.7651 8.36045 30.0413C8.47302 30.3711 8.53004 30.717 8.53004 31.0693V32.4805C8.53004 32.5843 8.44574 32.6686 8.34203 32.6686H1.57531C1.4716 32.6686 1.38729 32.5843 1.38729 32.4805V31.0693C1.38729 30.1604 1.77759 29.2994 2.44669 28.6994C3.01277 29.4511 3.91242 29.9383 4.92386 29.9383C6.63287 29.9383 8.0233 28.5478 8.0233 26.8388C8.0233 25.1298 6.63287 23.7394 4.92386 23.7394C3.21485 23.7394 1.82449 25.1298 1.82449 26.8388C1.82449 27.1497 1.87097 27.4497 1.95654 27.733C0.934761 28.534 0.330566 29.7644 0.330566 31.0694V32.4806C0.330566 33.167 0.888987 33.7254 1.57538 33.7254H8.3421C9.02849 33.7254 9.58691 33.1671 9.58691 32.4806V31.0694C9.58691 30.6007 9.51083 30.1401 9.36064 29.7001C9.26621 29.4237 8.96549 29.2762 8.68986 29.3706ZM4.92393 24.796C6.05027 24.796 6.96665 25.7123 6.96665 26.8387C6.96665 27.9652 6.05034 28.8815 4.92393 28.8815C3.79767 28.8815 2.88129 27.9652 2.88129 26.8387C2.88129 25.7123 3.79753 24.796 4.92393 24.796Z" fill="black"/>
<path d="M22.9976 12.1755H17.375C14.9454 12.1755 12.9241 13.9528 12.5403 16.2753H12.3484C10.1569 16.2753 8.3739 18.1088 8.3739 20.3626C8.3739 21.9503 9.25302 23.3722 10.633 24.0496C11.3113 25.6927 13.4277 26.4807 13.5214 26.5148C13.5805 26.5364 13.6416 26.5468 13.7022 26.5468C13.8467 26.5468 13.9881 26.4874 14.09 26.3774C14.2346 26.2213 14.2714 25.9937 14.1835 25.8C13.9708 25.3316 13.8512 24.8792 13.8259 24.4497H16.7793C18.4128 24.4497 19.8188 23.4307 20.4291 21.9785H21.2704C21.2555 22.5571 21.0985 23.1687 20.8013 23.8029C20.7109 23.9957 20.7451 24.224 20.888 24.3818C20.99 24.4945 21.1331 24.5556 21.2797 24.5556C21.3387 24.5556 21.398 24.5457 21.4555 24.5254C21.5729 24.484 24.2402 23.5221 25.0587 21.5243C26.7921 20.7225 27.8992 19.0021 27.8992 17.0771C27.8992 14.3743 25.7003 12.1755 22.9976 12.1755ZM24.4423 20.6401C24.2992 20.6982 24.1873 20.814 24.1402 20.9611C23.8437 21.8868 22.9411 22.5759 22.1964 23.006C22.3244 22.4551 22.3595 21.9163 22.3008 21.3945C22.2706 21.126 22.0456 20.9218 21.7754 20.9218H17.3751C16.8691 20.9218 16.3861 20.8229 15.9433 20.6442C15.7473 20.5651 15.5233 20.6082 15.3738 20.7577L15.3663 20.7652C15.1006 21.0309 15.1935 21.4807 15.5418 21.622C16.1083 21.8516 16.7271 21.9785 17.375 21.9785H19.2456C18.7282 22.8276 17.8162 23.3929 16.7791 23.3929H13.3115C13.0436 23.3929 12.8162 23.5935 12.7867 23.8598C12.7467 24.2207 12.7589 24.5911 12.823 24.9689C12.3101 24.6303 11.7625 24.141 11.5613 23.5145C11.5125 23.3624 11.4048 23.2349 11.2576 23.1732C10.1476 22.708 9.43048 21.6046 9.43048 20.3626C9.43048 18.6916 10.7393 17.3321 12.3483 17.3321H12.4802C12.5087 17.8844 12.6293 18.4127 12.8266 18.9021C12.9675 19.2516 13.4177 19.3462 13.6842 19.0797C13.6868 19.0771 13.6894 19.0745 13.6919 19.072C13.8408 18.9231 13.8847 18.7001 13.8062 18.5048C13.6186 18.0382 13.5194 17.527 13.5312 16.9914C13.5774 14.8928 15.3303 13.2324 17.4294 13.2324H22.9329C25.0546 13.2324 26.849 14.968 26.8423 17.0896C26.8374 18.6571 25.8964 20.0498 24.4423 20.6401Z" fill="black"/>
</g>
<defs>
<clipPath id="clip0">
<rect width="36" height="36" fill="white"/>
</clipPath>
</defs>
</svg>
