<svg width="64" height="64" viewBox="0 0 64 64" fill="none" xmlns="http://www.w3.org/2000/svg">
<path d="M49.3331 20.7744H55.3331L55.279 28.8163H49.3875L49.3331 20.7744Z" fill="#D9D9D9"/>
<path d="M61.2406 18.491C60.0858 18.491 58.9866 17.645 58.9866 16.4388C58.9866 15.8824 59.3736 15.2646 60.0119 14.7548C60.6457 14.2487 61.3995 13.9541 61.9291 13.9541C62.1978 13.9541 62.3712 14.0096 62.4885 14.0813C62.6041 14.152 62.7015 14.2606 62.7824 14.4291C62.9573 14.7933 63.0213 15.3603 63.0213 16.136C63.0213 17.5412 62.2062 18.491 61.2406 18.491ZM45.8087 16.7415C45.8087 17.9477 44.7095 18.7937 43.5547 18.7937C42.5892 18.7937 41.7741 17.8439 41.7741 16.4387C41.7741 15.663 41.8381 15.096 42.0129 14.7318C42.0938 14.5633 42.1913 14.4547 42.3068 14.384C42.4241 14.3123 42.5975 14.2568 42.8662 14.2568C43.3959 14.2568 44.1497 14.5514 44.7835 15.0575C45.4218 15.5673 45.8087 16.1851 45.8087 16.7415Z" fill="white" stroke="#D9D9D9"/>
<path d="M60.482 13.107C60.482 19.5135 56.752 23.724 52.3757 23.724C47.9994 23.724 44.2695 19.5135 44.2695 13.107C44.2695 6.70334 47.9972 2.5332 52.3757 2.5332C56.7543 2.5332 60.482 6.70334 60.482 13.107Z" fill="white" stroke="#D9D9D9"/>
<path d="M58.8738 11.031C59.2211 13.1411 61.6695 13.7074 62.0913 11.611C62.2107 11.0173 62.2733 10.404 62.2733 9.77659C62.2733 4.49686 57.8422 0.216797 52.3761 0.216797C46.91 0.216797 42.4789 4.49686 42.4789 9.77659C42.4789 10.3237 42.5265 10.8601 42.6178 11.3821C43.0434 13.8127 45.9806 13.3639 46.782 11.031C50.1834 10.3012 51.9775 9.42599 55.001 7.13792C55.9675 9.59369 56.8816 10.3329 58.8738 11.031Z" fill="#D9D9D9"/>
<ellipse cx="48.9339" cy="15.011" rx="0.774564" ry="1.2112" fill="#D9D9D9"/>
<ellipse cx="55.8183" cy="15.011" rx="0.774564" ry="1.2112" fill="#D9D9D9"/>
<path d="M52.3331 26.6367C55.475 26.6367 58.2959 27.4424 60.3156 28.7186C62.3416 29.9987 63.4997 31.7048 63.4997 33.5085V48.273C63.4997 50.206 61.9327 51.773 59.9997 51.773H44.6665C42.7335 51.773 41.1665 50.206 41.1665 48.273V33.5085C41.1665 31.7048 42.3246 29.9987 44.3506 28.7186C46.3703 27.4424 49.1912 26.6367 52.3331 26.6367Z" fill="white" stroke="#D9D9D9"/>
<path d="M3.50494 21.4988C3.13181 21.4988 2.78875 21.2486 2.66104 20.8962C-7.03846 -5.87127 29.4034 -8.01165 21.0854 20.8189C20.9723 21.2108 20.6058 21.4988 20.1998 21.4988H19.9072C19.712 21.4988 19.5358 21.3812 19.46 21.2003C19.3447 20.925 19.0125 20.8176 18.7591 20.9737L18.167 21.3385C17.9969 21.4433 17.8012 21.4988 17.6016 21.4988H5.36248C5.19209 21.4988 5.03695 21.4001 4.96401 21.2453C4.83348 20.9683 4.46937 20.9049 4.25377 21.1217L4.06331 21.3131C3.94503 21.432 3.7846 21.4988 3.61732 21.4988H3.50494Z" fill="#D9D9D9"/>
<path d="M8.61134 20.5479H14.7218L14.6667 26.807H8.66668L8.61134 20.5479Z" fill="#D9D9D9"/>
<path d="M20.5741 18.491C19.4194 18.491 18.3201 17.645 18.3201 16.4388C18.3201 15.8824 18.7071 15.2646 19.3454 14.7548C19.9792 14.2487 20.733 13.9541 21.2626 13.9541C21.5314 13.9541 21.7048 14.0096 21.8221 14.0813C21.9376 14.152 22.035 14.2606 22.116 14.4291C22.2908 14.7933 22.3548 15.3603 22.3548 16.136C22.3548 17.5412 21.5397 18.491 20.5741 18.491ZM5.14229 16.7415C5.14229 17.9477 4.04307 18.7937 2.88828 18.7937C1.92271 18.7937 1.10762 17.8439 1.10762 16.4387C1.10762 15.663 1.17161 15.096 1.34645 14.7318C1.42739 14.5633 1.52479 14.4547 1.64038 14.384C1.75765 14.3123 1.93103 14.2568 2.19978 14.2568C2.72943 14.2568 3.48319 14.5514 4.11701 15.0575C4.75532 15.5673 5.14229 16.1851 5.14229 16.7415Z" fill="white" stroke="#D9D9D9"/>
<path d="M19.8167 13.107C19.8167 19.5135 16.0868 23.724 11.7105 23.724C7.33419 23.724 3.6042 19.5135 3.6042 13.107C3.6042 6.70334 7.33194 2.5332 11.7105 2.5332C16.089 2.5332 19.8167 6.70334 19.8167 13.107Z" fill="white" stroke="#D9D9D9"/>
<path d="M18.2076 11.031C18.5549 13.1411 21.0033 13.7074 21.4251 11.611C21.5445 11.0173 21.6071 10.404 21.6071 9.77659C21.6071 4.49686 17.176 0.216797 11.7099 0.216797C6.2438 0.216797 1.81267 4.49686 1.81267 9.77659C1.81267 10.3237 1.86025 10.8601 1.95164 11.3821C2.37718 13.8127 5.31443 13.3639 6.1158 11.031C9.51725 10.3012 11.3113 9.42599 14.3348 7.13792C15.3013 9.59369 16.2154 10.3329 18.2076 11.031Z" fill="#D9D9D9"/>
<ellipse cx="8.26771" cy="15.011" rx="0.774564" ry="1.2112" fill="#D9D9D9"/>
<ellipse cx="15.1521" cy="15.011" rx="0.774564" ry="1.2112" fill="#D9D9D9"/>
<path d="M11.6666 26.6367C14.8086 26.6367 17.6295 27.4424 19.6491 28.7186C21.6751 29.9987 22.8333 31.7048 22.8333 33.5085V48.273C22.8333 50.206 21.2663 51.773 19.3333 51.773H4C2.06701 51.773 0.5 50.206 0.5 48.273V33.5085C0.5 31.7048 1.65815 29.9987 3.68416 28.7186C5.70382 27.4424 8.52472 26.6367 11.6666 26.6367Z" fill="white" stroke="#D9D9D9"/>
<path d="M17.3185 33.9486C19.0637 31.5143 19.7071 28.4701 20.8021 25.6787C24.3533 16.626 38.6916 17.3384 42.4306 25.7931C43.6189 28.4801 44.2768 31.4751 46.0352 33.825L49.3927 38.3116C50.0894 39.2426 50.2618 40.468 49.8492 41.5567C49.4091 42.718 49.6363 44.0283 50.4413 44.9714L54.3821 49.5883C54.8559 50.1435 55.1165 50.8508 55.1165 51.5824C55.1165 53.2736 53.7526 54.6446 52.0702 54.6446H10.2601C8.63005 54.6446 7.30862 53.3163 7.30862 51.6776C7.30862 50.8908 7.61958 50.1361 8.1731 49.5797L12.8104 44.918C13.7125 44.0112 14.0342 42.6734 13.6439 41.4525C13.3131 40.4181 13.4909 39.2872 14.1229 38.4057L17.3185 33.9486Z" fill="#D9D9D9"/>
<path d="M28.6086 39.9814H34.719L34.6639 46.2406H28.6639L28.6086 39.9814Z" fill="white"/>
<path d="M40.5716 38.4246C39.2169 38.4246 37.8176 37.4253 37.8176 35.8724C37.8176 34.3196 39.9054 32.8877 41.2601 32.8877C42.6147 32.8877 42.8522 34.0168 42.8522 35.5696C42.8522 37.1225 41.9262 38.4246 40.5716 38.4246Z" fill="white"/>
<path d="M22.8857 38.7273C24.2403 38.7273 25.6397 37.728 25.6397 36.1751C25.6397 34.6223 23.5518 33.1904 22.1972 33.1904C20.8426 33.1904 20.605 34.3195 20.605 35.8723C20.605 37.4252 21.5311 38.7273 22.8857 38.7273Z" fill="white"/>
<path d="M40.314 32.5406C40.314 39.1104 36.4608 43.6576 31.7077 43.6576C26.9546 43.6576 23.1014 39.1104 23.1014 32.5406C23.1014 25.9708 26.9546 21.4668 31.7077 21.4668C36.4608 21.4668 40.314 25.9708 40.314 32.5406Z" fill="white"/>
<line x1="0.5" y1="-0.5" x2="1.39278" y2="-0.5" transform="matrix(-0.682035 -0.731319 0.72775 -0.685843 23.3586 36.6943)" stroke="#D9D9D9" stroke-linecap="round"/>
<line x1="0.5" y1="-0.5" x2="1.39278" y2="-0.5" transform="matrix(0.682035 -0.731319 -0.72775 -0.685843 40.0986 36.3906)" stroke="#D9D9D9" stroke-linecap="round"/>
<path d="M38.2049 30.4646C38.5522 32.5747 41.0005 33.1409 41.4223 31.0446C41.5417 30.4509 41.6043 29.8376 41.6043 29.2102C41.6043 23.9305 37.1732 19.6504 31.7071 19.6504C26.241 19.6504 21.8099 23.9305 21.8099 29.2102C21.8099 29.7573 21.8575 30.2937 21.9489 30.8157C22.3744 33.2463 25.3117 32.7974 26.113 30.4646C29.5145 29.7348 31.3085 28.8596 34.332 26.5715C35.2986 29.0273 36.2126 29.7665 38.2049 30.4646Z" fill="#D9D9D9"/>
<ellipse cx="28.2649" cy="34.4436" rx="0.774564" ry="1.2112" fill="#D9D9D9"/>
<ellipse cx="35.1493" cy="34.4436" rx="0.774564" ry="1.2112" fill="#D9D9D9"/>
<path d="M26.8887 36.4764C26.8887 36.5958 26.7924 36.6927 26.6736 36.6927C26.5547 36.6927 26.4584 36.5958 26.4584 36.4764C26.4584 36.3569 26.5547 36.2601 26.6736 36.2601C26.7924 36.2601 26.8887 36.3569 26.8887 36.4764Z" fill="#D9D9D9"/>
<path d="M27.5772 36.5629C27.5772 36.6823 27.4809 36.7792 27.3621 36.7792C27.2432 36.7792 27.1469 36.6823 27.1469 36.5629C27.1469 36.4434 27.2432 36.3466 27.3621 36.3466C27.4809 36.3466 27.5772 36.4434 27.5772 36.5629Z" fill="#D9D9D9"/>
<path d="M26.3723 35.6112C26.3723 35.7307 26.276 35.8275 26.1572 35.8275C26.0384 35.8275 25.942 35.7307 25.942 35.6112C25.942 35.4918 26.0384 35.395 26.1572 35.395C26.276 35.395 26.3723 35.4918 26.3723 35.6112Z" fill="#D9D9D9"/>
<path d="M25.4257 35.7843C25.4257 35.9037 25.3293 36.0006 25.2105 36.0006C25.0917 36.0006 24.9953 35.9037 24.9953 35.7843C24.9953 35.6648 25.0917 35.568 25.2105 35.568C25.3293 35.568 25.4257 35.6648 25.4257 35.7843Z" fill="#D9D9D9"/>
<path d="M27.8354 35.8708C27.8354 35.9902 27.7391 36.0871 27.6203 36.0871C27.5014 36.0871 27.4051 35.9902 27.4051 35.8708C27.4051 35.7513 27.5014 35.6545 27.6203 35.6545C27.7391 35.6545 27.8354 35.7513 27.8354 35.8708Z" fill="#D9D9D9"/>
<path d="M27.8354 37.255C27.8354 37.3745 27.7391 37.4713 27.6203 37.4713C27.5014 37.4713 27.4051 37.3745 27.4051 37.255C27.4051 37.1356 27.5014 37.0387 27.6203 37.0387C27.7391 37.0387 27.8354 37.1356 27.8354 37.255Z" fill="#D9D9D9"/>
<path d="M29.4706 36.1303C29.4706 36.2498 29.3743 36.3466 29.2555 36.3466C29.1366 36.3466 29.0403 36.2498 29.0403 36.1303C29.0403 36.0109 29.1366 35.914 29.2555 35.914C29.3743 35.914 29.4706 36.0109 29.4706 36.1303Z" fill="#D9D9D9"/>
<path d="M28.61 36.3899C28.61 36.5093 28.5137 36.6062 28.3948 36.6062C28.276 36.6062 28.1797 36.5093 28.1797 36.3899C28.1797 36.2704 28.276 36.1736 28.3948 36.1736C28.5137 36.1736 28.61 36.2704 28.61 36.3899Z" fill="#D9D9D9"/>
<path d="M30.4173 35.7843C30.4173 35.9037 30.321 36.0006 30.2021 36.0006C30.0833 36.0006 29.987 35.9037 29.987 35.7843C29.987 35.6648 30.0833 35.568 30.2021 35.568C30.321 35.568 30.4173 35.6648 30.4173 35.7843Z" fill="#D9D9D9"/>
<path d="M31.1058 34.9191C31.1058 35.0386 31.0095 35.1354 30.8906 35.1354C30.7718 35.1354 30.6755 35.0386 30.6755 34.9191C30.6755 34.7997 30.7718 34.7028 30.8906 34.7028C31.0095 34.7028 31.1058 34.7997 31.1058 34.9191Z" fill="#D9D9D9"/>
<path d="M31.8804 35.4382C31.8804 35.5577 31.784 35.6545 31.6652 35.6545C31.5464 35.6545 31.45 35.5577 31.45 35.4382C31.45 35.3188 31.5464 35.2219 31.6652 35.2219C31.784 35.2219 31.8804 35.3188 31.8804 35.4382Z" fill="#D9D9D9"/>
<path d="M31.8804 34.6596C31.8804 34.779 31.784 34.8759 31.6652 34.8759C31.5464 34.8759 31.45 34.779 31.45 34.6596C31.45 34.5401 31.5464 34.4433 31.6652 34.4433C31.784 34.4433 31.8804 34.5401 31.8804 34.6596Z" fill="#D9D9D9"/>
<path d="M32.3107 34.054C32.3107 34.1734 32.2143 34.2703 32.0955 34.2703C31.9767 34.2703 31.8804 34.1734 31.8804 34.054C31.8804 33.9345 31.9767 33.8377 32.0955 33.8377C32.2143 33.8377 32.3107 33.9345 32.3107 34.054Z" fill="#D9D9D9"/>
<path d="M31.6222 33.6214C31.6222 33.7409 31.5258 33.8377 31.407 33.8377C31.2882 33.8377 31.1919 33.7409 31.1919 33.6214C31.1919 33.502 31.2882 33.4051 31.407 33.4051C31.5258 33.4051 31.6222 33.502 31.6222 33.6214Z" fill="#D9D9D9"/>
<path d="M32.5689 32.3237C32.5689 32.4432 32.4725 32.54 32.3537 32.54C32.2349 32.54 32.1386 32.4432 32.1386 32.3237C32.1386 32.2043 32.2349 32.1074 32.3537 32.1074C32.4725 32.1074 32.5689 32.2043 32.5689 32.3237Z" fill="#D9D9D9"/>
<path d="M32.8271 35.3517C32.8271 35.4711 32.7307 35.568 32.6119 35.568C32.4931 35.568 32.3967 35.4711 32.3967 35.3517C32.3967 35.2322 32.4931 35.1354 32.6119 35.1354C32.7307 35.1354 32.8271 35.2322 32.8271 35.3517Z" fill="#D9D9D9"/>
<path d="M32.8271 34.4866C32.8271 34.606 32.7307 34.7028 32.6119 34.7028C32.4931 34.7028 32.3967 34.606 32.3967 34.4866C32.3967 34.3671 32.4931 34.2703 32.6119 34.2703C32.7307 34.2703 32.8271 34.3671 32.8271 34.4866Z" fill="#D9D9D9"/>
<path d="M33.6877 35.4382C33.6877 35.5577 33.5914 35.6545 33.4725 35.6545C33.3537 35.6545 33.2574 35.5577 33.2574 35.4382C33.2574 35.3188 33.3537 35.2219 33.4725 35.2219C33.5914 35.2219 33.6877 35.3188 33.6877 35.4382Z" fill="#D9D9D9"/>
<path d="M34.118 36.3034C34.118 36.4228 34.0217 36.5196 33.9028 36.5196C33.784 36.5196 33.6877 36.4228 33.6877 36.3034C33.6877 36.1839 33.784 36.0871 33.9028 36.0871C34.0217 36.0871 34.118 36.1839 34.118 36.3034Z" fill="#D9D9D9"/>
<path d="M35.1507 36.0438C35.1507 36.1633 35.0544 36.2601 34.9356 36.2601C34.8168 36.2601 34.7204 36.1633 34.7204 36.0438C34.7204 35.9244 34.8168 35.8275 34.9356 35.8275C35.0544 35.8275 35.1507 35.9244 35.1507 36.0438Z" fill="#D9D9D9"/>
<path d="M34.8926 37.255C34.8926 37.3745 34.7962 37.4713 34.6774 37.4713C34.5586 37.4713 34.4622 37.3745 34.4622 37.255C34.4622 37.1356 34.5586 37.0387 34.6774 37.0387C34.7962 37.0387 34.8926 37.1356 34.8926 37.255Z" fill="#D9D9D9"/>
<path d="M36.4417 36.3034C36.4417 36.4228 36.3454 36.5196 36.2265 36.5196C36.1077 36.5196 36.0114 36.4228 36.0114 36.3034C36.0114 36.1839 36.1077 36.0871 36.2265 36.0871C36.3454 36.0871 36.4417 36.1839 36.4417 36.3034Z" fill="#D9D9D9"/>
<path d="M35.9253 36.9955C35.9253 37.1149 35.829 37.2117 35.7102 37.2117C35.5913 37.2117 35.495 37.1149 35.495 36.9955C35.495 36.876 35.5913 36.7792 35.7102 36.7792C35.829 36.7792 35.9253 36.876 35.9253 36.9955Z" fill="#D9D9D9"/>
<path d="M37.2163 36.9089C37.2163 37.0284 37.1199 37.1252 37.0011 37.1252C36.8823 37.1252 36.7859 37.0284 36.7859 36.9089C36.7859 36.7895 36.8823 36.6927 37.0011 36.6927C37.1199 36.6927 37.2163 36.7895 37.2163 36.9089Z" fill="#D9D9D9"/>
<path d="M38.5072 35.3517C38.5072 35.4711 38.4109 35.568 38.292 35.568C38.1732 35.568 38.0769 35.4711 38.0769 35.3517C38.0769 35.2322 38.1732 35.1354 38.292 35.1354C38.4109 35.1354 38.5072 35.2322 38.5072 35.3517Z" fill="#D9D9D9"/>
<path d="M51.9984 28.8159L47.665 24.7949L44.665 28.1457L49.3317 33.507L51.9984 28.8159Z" fill="white" stroke="#D9D9D9" stroke-linecap="round" stroke-linejoin="round"/>
<path d="M52.6652 28.8159L56.9986 24.7949L59.9986 28.1457L55.3319 33.507L52.6652 28.8159Z" fill="white" stroke="#D9D9D9" stroke-linecap="round" stroke-linejoin="round"/>
<path d="M43.3324 52.9421C43.3324 48.8708 38.109 45.5703 31.6657 45.5703C25.2224 45.5703 19.9991 48.8708 19.9991 52.9421V59.9997C19.9991 62.2089 21.79 63.9997 23.9991 63.9997H39.3324C41.5415 63.9997 43.3324 62.2089 43.3324 59.9997V52.9421Z" fill="white"/>
<path d="M23.9991 63.9996C21.79 63.9996 19.9991 62.2087 19.9991 59.9996V52.9422C19.9991 49.8385 23.0348 47.1827 27.3324 46.0957L31.6657 53.6124L35.9991 46.0957C40.2967 47.1827 43.3324 49.8385 43.3324 52.9422V59.9996C43.3324 62.2087 41.5415 63.9996 39.3324 63.9996H23.9991Z" fill="#D9D9D9"/>
</svg>
