<svg width="64" height="64" viewBox="0 0 64 64" fill="none" xmlns="http://www.w3.org/2000/svg">
<path d="M6 4.5H53.7333C56.7709 4.5 59.2333 6.96243 59.2333 10V54C59.2333 57.0376 56.7709 59.5 53.7333 59.5H6.00001C2.96244 59.5 0.5 57.0376 0.5 54V10C0.5 6.96243 2.96243 4.5 6 4.5Z" fill="white" stroke="#D9D9D9"/>
<rect x="18.9885" y="15.833" width="33.1333" height="1.66667" rx="0.833333" fill="#D9D9D9" stroke="#D9D9D9"/>
<rect x="18.9885" y="42.5" width="33.1333" height="1.66667" rx="0.833333" fill="#D9D9D9" stroke="#D9D9D9"/>
<rect x="18.9885" y="29.167" width="33.1333" height="1.66667" rx="0.833333" fill="#D9D9D9" stroke="#D9D9D9"/>
<rect x="18.9885" y="19.833" width="33.1333" height="1.66667" rx="0.833333" fill="#D9D9D9" stroke="#D9D9D9"/>
<rect x="18.9885" y="46.5" width="33.1333" height="1.66667" rx="0.833333" fill="#D9D9D9" stroke="#D9D9D9"/>
<rect x="18.9885" y="33.167" width="33.1333" height="1.66667" rx="0.833333" fill="#D9D9D9" stroke="#D9D9D9"/>
<path d="M28.7552 32.5H57.9996C61.0372 32.5 63.4997 34.9624 63.4997 38V58C63.4997 61.0376 61.0372 63.5 57.9997 63.5H28.7552C25.7177 63.5 23.2552 61.0376 23.2552 58V38C23.2552 34.9624 25.7176 32.5 28.7552 32.5Z" fill="white" stroke="#D9D9D9"/>
<rect x="18.9885" y="2.5" width="21.7556" height="7" rx="3.5" fill="#D9D9D9" stroke="#D9D9D9"/>
<rect x="28.9448" y="29.167" width="3.26667" height="7" rx="1.63333" fill="white" stroke="#D9D9D9"/>
<rect x="36.0552" y="29.167" width="3.26667" height="7" rx="1.63333" fill="white" stroke="#D9D9D9"/>
<rect x="47.4333" y="29.167" width="3.26667" height="7" rx="1.63333" fill="white" stroke="#D9D9D9"/>
<rect x="54.5448" y="29.167" width="3.26667" height="7" rx="1.63333" fill="white" stroke="#D9D9D9"/>
<rect x="7.61146" y="15.167" width="7.53333" height="7" rx="1.5" fill="#D9D9D9" stroke="#D9D9D9"/>
<rect x="27.5219" y="40.5" width="3.26667" height="3" rx="0.5" fill="#D9D9D9" stroke="#D9D9D9"/>
<rect x="34.6333" y="40.5" width="3.26667" height="3" rx="0.5" fill="#D9D9D9" stroke="#D9D9D9"/>
<rect x="41.7448" y="40.5" width="3.26667" height="3" rx="0.5" fill="#D9D9D9" stroke="#D9D9D9"/>
<rect x="48.8552" y="40.5" width="3.26667" height="3" rx="0.5" fill="#D9D9D9" stroke="#D9D9D9"/>
<rect x="55.9667" y="40.5" width="3.26667" height="3" rx="0.5" fill="#D9D9D9" stroke="#D9D9D9"/>
<rect x="27.5219" y="47.167" width="3.26667" height="3" rx="0.5" fill="#D9D9D9" stroke="#D9D9D9"/>
<rect x="34.6333" y="47.167" width="3.26667" height="3" rx="0.5" fill="#D9D9D9" stroke="#D9D9D9"/>
<rect x="41.7448" y="47.167" width="3.26667" height="3" rx="0.5" fill="#D9D9D9" stroke="#D9D9D9"/>
<rect x="48.8552" y="47.167" width="3.26667" height="3" rx="0.5" fill="#D9D9D9" stroke="#D9D9D9"/>
<rect x="55.9667" y="47.167" width="3.26667" height="3" rx="0.5" fill="#D9D9D9" stroke="#D9D9D9"/>
<rect x="27.5219" y="53.833" width="3.26667" height="3" rx="0.5" fill="#D9D9D9" stroke="#D9D9D9"/>
<rect x="34.6333" y="53.833" width="3.26667" height="3" rx="0.5" fill="#D9D9D9" stroke="#D9D9D9"/>
<rect x="41.7448" y="53.833" width="3.26667" height="3" rx="0.5" fill="#D9D9D9" stroke="#D9D9D9"/>
<rect x="48.8552" y="53.833" width="3.26667" height="3" rx="0.5" fill="#D9D9D9" stroke="#D9D9D9"/>
<rect x="55.9667" y="53.833" width="3.26667" height="3" rx="0.5" fill="#D9D9D9" stroke="#D9D9D9"/>
<rect x="7.61146" y="28.5" width="7.53333" height="7" rx="1.5" fill="#D9D9D9" stroke="#D9D9D9"/>
<rect x="7.61146" y="41.833" width="7.53333" height="7" rx="1.5" fill="#D9D9D9" stroke="#D9D9D9"/>
<path d="M32.2108 2.66667C32.2108 3.83338 31.192 4.83333 29.8663 4.83333C28.5406 4.83333 27.5219 3.83338 27.5219 2.66667C27.5219 1.49996 28.5406 0.5 29.8663 0.5C31.192 0.5 32.2108 1.49996 32.2108 2.66667Z" fill="#D9D9D9" stroke="#D9D9D9"/>
</svg>
