<svg width="64" height="66" viewBox="0 0 64 66" fill="none" xmlns="http://www.w3.org/2000/svg">
<rect x="0.5" y="0.5" width="61" height="63" rx="5.5" fill="white" stroke="#D9D9D9"/>
<rect x="8.5" y="10.5" width="7" height="7" rx="1.5" stroke="#D9D9D9"/>
<path d="M21.6673 11.5H50.6667C51.1269 11.5 51.5 11.8731 51.5 12.3333C51.5 12.7936 51.1269 13.1667 50.6667 13.1667H21.6673C21.2071 13.1667 20.834 12.7936 20.834 12.3333C20.834 11.8731 21.2071 11.5 21.6673 11.5Z" fill="#D9D9D9" stroke="#D9D9D9"/>
<path d="M21.6673 23.5H50.6667C51.1269 23.5 51.5 23.8731 51.5 24.3333C51.5 24.7936 51.1269 25.1667 50.6667 25.1667H21.6673C21.2071 25.1667 20.834 24.7936 20.834 24.3333C20.834 23.8731 21.2071 23.5 21.6673 23.5Z" fill="#D9D9D9" stroke="#D9D9D9"/>
<path d="M21.6673 35.5H50.6667C51.1269 35.5 51.5 35.8731 51.5 36.3333C51.5 36.7936 51.1269 37.1667 50.6667 37.1667H21.6673C21.2071 37.1667 20.834 36.7936 20.834 36.3333C20.834 35.8731 21.2071 35.5 21.6673 35.5Z" fill="#D9D9D9" stroke="#D9D9D9"/>
<path d="M21.6673 47.5H50.6667C51.1269 47.5 51.5 47.8731 51.5 48.3333C51.5 48.7936 51.1269 49.1667 50.6667 49.1667H21.6673C21.2071 49.1667 20.834 48.7936 20.834 48.3333C20.834 47.8731 21.2071 47.5 21.6673 47.5Z" stroke="#D9D9D9"/>
<rect x="20.834" y="15.5" width="17.2857" height="1.66667" rx="0.833333" fill="#D9D9D9" stroke="#D9D9D9"/>
<rect x="20.834" y="27.5" width="17.2857" height="1.66667" rx="0.833333" fill="#D9D9D9" stroke="#D9D9D9"/>
<rect x="20.834" y="39.5" width="17.2857" height="1.66667" rx="0.833333" fill="#D9D9D9" stroke="#D9D9D9"/>
<rect x="20.834" y="51.5" width="17.2857" height="1.66667" rx="0.833333" stroke="#D9D9D9"/>
<rect x="8.5" y="22.5" width="7" height="7" rx="1.5" stroke="#D9D9D9"/>
<rect x="8.5" y="34.5" width="7" height="7" rx="1.5" stroke="#D9D9D9"/>
<rect x="8.5" y="46.5" width="7" height="7" rx="1.5" stroke="#D9D9D9"/>
<path d="M10.5 12.5L12 14L18.381 7" stroke="#D9D9D9" stroke-width="2" stroke-linecap="round" stroke-linejoin="round"/>
<path d="M10.5 24.5L12 26L18.381 19" stroke="#D9D9D9" stroke-width="2" stroke-linecap="round" stroke-linejoin="round"/>
<path d="M10.619 36.5L12.119 38L18.4999 31" stroke="#D9D9D9" stroke-width="2" stroke-linecap="round" stroke-linejoin="round"/>
<path d="M59 0.5H60C61.933 0.5 63.5 2.067 63.5 4V8C63.5 8.82843 62.8284 9.5 62 9.5H57C56.1716 9.5 55.5 8.82843 55.5 8V4C55.5 2.067 57.067 0.5 59 0.5Z" fill="#D9D9D9" stroke="#D9D9D9"/>
<path d="M57 11.5H62C62.8284 11.5 63.5 12.1716 63.5 13V14C63.5 14.8284 62.8284 15.5 62 15.5H57C56.1716 15.5 55.5 14.8284 55.5 14V13C55.5 12.1716 56.1716 11.5 57 11.5Z" fill="#D9D9D9" stroke="#D9D9D9"/>
<path d="M57 17.5H62C62.8284 17.5 63.5 18.1716 63.5 19V57.7505C63.5 58.4624 63.2829 59.1574 62.8777 59.7427L60.7333 62.8402C60.1368 63.7018 58.8632 63.7018 58.2667 62.8402L56.1223 59.7427C55.7171 59.1574 55.5 58.4624 55.5 57.7505V19C55.5 18.1716 56.1716 17.5 57 17.5Z" fill="#D9D9D9" stroke="#D9D9D9"/>
</svg>
